<?xml version="1.0" encoding="utf-8"?>
<!-- Generator: Adobe Illustrator 15.1.0, SVG Export Plug-In . SVG Version: 6.00 Build 0)  -->
<!DOCTYPE svg PUBLIC "-//W3C//DTD SVG 1.1//EN" "http://www.w3.org/Graphics/SVG/1.1/DTD/svg11.dtd" [
	<!ENTITY ns_flows "http://ns.adobe.com/Flows/1.0/">
	<!ENTITY ns_extend "http://ns.adobe.com/Extensibility/1.0/">
	<!ENTITY ns_ai "http://ns.adobe.com/AdobeIllustrator/10.0/">
	<!ENTITY ns_graphs "http://ns.adobe.com/Graphs/1.0/">
]>
<svg version="1.1" id="Layer_1" xmlns:x="&ns_extend;" xmlns:i="&ns_ai;" xmlns:graph="&ns_graphs;"
	 xmlns="http://www.w3.org/2000/svg" xmlns:xlink="http://www.w3.org/1999/xlink" xmlns:a="http://ns.adobe.com/AdobeSVGViewerExtensions/3.0/"
	 x="0px" y="0px" width="105" height="5px" viewBox="0 0" enable-background="new 0 0"
	 xml:space="preserve">
<g>
	<path clip-path="url(#SVGID_2_)" fill="#696158" d="M104.603,4.788c0.058-0.145,0.115-0.287,0.174-0.432
		c-0.522-0.21-1.046-0.422-1.568-0.634c0.424-1.818-0.367-0.939,1.388-1.628c-0.151-0.133-0.285-0.242-0.405-0.335
		c-0.073-0.182-0.146-0.366-0.219-0.548c-0.083,0.07-0.166,0.14-0.249,0.21c-0.407-0.282-0.556-0.387-0.784-1.091
		c-1.363,0.36-2.728,0.723-4.09,1.084c-0.106-0.202-0.213-0.403-0.318-0.605c0.055-0.013,0.109-0.027,0.164-0.04
		c-0.164-0.193-0.326-0.385-0.489-0.578C98.172,0.127,98.138,0.063,98.104,0h-0.508c-0.107,1.847-0.197,1.533-1.676,2.788
		c0.041,0.502,0.081,1.004,0.121,1.508c0.195-0.135,0.393-0.268,0.587-0.4c-0.038,0.044-0.073,0.081-0.104,0.109
		c0.44,0.03,0.761-0.057,1.004-0.209c-0.172,0.256-0.305,0.558-0.415,0.972h3.839"/>
	<path clip-path="url(#SVGID_2_)" fill="#696158" d="M98.318,2.743c0.081-0.055,0.162-0.111,0.242-0.166
		c-0.14,0.168-0.269,0.313-0.387,0.445C98.225,2.926,98.272,2.832,98.318,2.743"/>
	<path clip-path="url(#SVGID_2_)" fill="#696158" d="M105.72,1.488v-0.23c-0.02-0.003-0.032-0.004-0.053-0.007
		C105.692,1.345,105.706,1.417,105.72,1.488"/>
	<path clip-path="url(#SVGID_2_)" fill="#696158" d="M40.534,4.767h1.426c0.083-0.897-0.031-1.834-0.36-2.581
		c0.501-0.04,1.005-0.08,1.508-0.119c0.119,0.248,0.232,0.453,0.336,0.627c-0.127,0.011-0.255,0.021-0.381,0.031
		c0.02,0.252,0.04,0.503,0.061,0.753c0.196-0.118,0.394-0.237,0.591-0.355c0.225,0.343,0.384,0.585,0.448,0.982
		c-0.337-0.082-0.673-0.165-1.01-0.249c0.128,0.304,0.258,0.607,0.387,0.91h2.819c-0.098-1.23-0.197-2.463-0.293-3.695
		c-0.404,0.032-0.808,0.065-1.213,0.097c0.108-0.17,0.215-0.341,0.323-0.511c-0.344-0.084-0.688-0.168-1.031-0.253
		C44.2,0.27,44.254,0.135,44.308,0h-5.063c0.415,0.871,0.742,1.713,0.958,2.571C40.382,3.276,40.479,4.007,40.534,4.767
		 M43.955,0.874c-0.015,0.123-0.029,0.246-0.044,0.369c-0.036,0.003-0.073,0.006-0.109,0.009C43.853,1.126,43.904,1,43.955,0.874"/>
	<path clip-path="url(#SVGID_2_)" fill="#696158" d="M47.511,4.768h4.817c-0.072-0.701-0.108-1.461-0.079-2.292
		c-1.005,0.079-2.013,0.16-3.016,0.241c-0.022-0.254-0.042-0.505-0.061-0.754c1.469-0.29,3.139-0.279,4.547-0.701
		c0.22,0.187,0.438,0.373,0.657,0.56c0.126-0.01,0.253-0.02,0.378-0.03c-0.024-0.307-0.049-0.613-0.072-0.919
		c0.124-0.067,0.245-0.14,0.361-0.22c0.029,0.37,0.059,0.739,0.089,1.11c0.305-0.025,0.609-0.049,0.915-0.073
		c-0.083,0.272-0.201,0.563-0.373,0.892c1.142-0.297,2.092-0.683,2.94-1.097c0.348-0.027,0.694-0.056,1.041-0.083
		c-0.559,0.852-1.168,1.149-1.733,2.034c0.418,0.482,0.658,0.693,0.849,1.02c-0.506-0.428-0.894-0.515-1.875-0.833
		c-0.26,0.245-0.416,0.366-0.522,0.454c-0.222-0.159-0.446-0.304-0.669-0.432c-0.511-0.594-0.376-0.541-1.164-0.973
		c-0.638-0.075-1.275-0.151-1.914-0.227c0.237,0.775,0.476,1.548,0.715,2.322h0.841c-0.102-0.301-0.203-0.603-0.304-0.903
		c1.3,0.558,0.257,0.31,1.725-0.105c-0.087,0.214-0.175,0.428-0.261,0.643c-0.202,0.122-0.403,0.244-0.604,0.366h5.198
		c0.038-0.154,0.076-0.309,0.114-0.462c0.215,0.137,0.497,0.234,0.889,0.332c0.015,0.043,0.029,0.087,0.044,0.13h6.166
		c0.301-0.203,0.605-0.348,0.939-0.538c0.823-0.188,1.648-0.373,2.474-0.559c-0.643-1.474-0.767-0.601-2.035-1.734
		c0.637,0.076,1.276,0.151,1.914,0.227c-1.034-1.784-0.795-1.369-2.759-1.299C68.251,0.403,68.675,0.17,68.991,0h-6.193
		c0.389,1.359,0.521,0.891,1.58,2.268c-0.096,0.387-0.191,0.774-0.285,1.163c-0.21-0.126-0.395-0.25-0.56-0.379
		c0.016-0.021,0.03-0.043,0.046-0.064c-0.146-0.241-0.291-0.483-0.437-0.724c-0.148-0.037-0.296-0.074-0.443-0.11
		c-0.271-0.416-0.486-0.92-0.733-1.59c-1.618,0.973-0.007,0.874-0.867,1.853c-0.174-0.787-0.388-1.202-0.854-1.803
		c0.373-0.21,0.735-0.416,1.099-0.613h-5.529c-0.022,0.008-0.043,0.017-0.066,0.024C55.755,0.015,55.761,0.007,55.768,0h-4.502
		c-0.019,0.06-0.034,0.107-0.056,0.178c0.053,0.022,0.106,0.044,0.159,0.064c-0.38,0.312-0.826,0.619-1.502,0.906
		C49.898,0.765,49.933,0.382,49.965,0H47.46c-0.204,0.091-0.43,0.178-0.702,0.258C47.125,2.095,47.225,3.461,47.511,4.768"/>
	<path clip-path="url(#SVGID_2_)" fill="#696158" d="M70.324,0.654c0.567,0.589,0.91,0.599,1.597,1.013
		c-0.366,0.154-0.734,0.31-1.101,0.465c0.146,0.242,0.292,0.485,0.437,0.726c2.452,0.123,3.24-0.379,5.202,0.285
		c-0.175,0.121-0.278,0.317-0.328,0.566c-0.453,0.129-0.907,0.257-1.359,0.387c0.221-0.397,0.442-0.795,0.663-1.193
		c-0.503,0.04-1.005,0.08-1.508,0.12c-0.308,0.243-0.617,0.487-0.925,0.731c-0.279,0.021-0.559,0.044-0.838,0.065
		c-0.282-0.222-0.579-0.422-0.877-0.585c0.012,0.652,0.114,1.131,0.232,1.533h1.62c-0.23-0.273-0.49-0.542-0.78-0.788
		c0.401,0.163,0.805,0.325,1.207,0.489c-0.003-0.041-0.007-0.082-0.011-0.122c0.234,0.151,0.434,0.28,0.617,0.421h5.587
		c-0.001-0.011-0.002-0.022-0.003-0.035c0.472-0.037,0.942-0.074,1.412-0.112c-0.03-0.377-0.06-0.755-0.091-1.131
		c-0.282,0.021-0.565,0.045-0.85,0.067c0.037-0.066,0.091-0.16,0.171-0.291c-0.252,0.022-0.503,0.041-0.755,0.062
		c0.008,0.091,0.016,0.184,0.022,0.275c-0.032,0.003-0.065,0.005-0.097,0.008c0.02,0.25,0.04,0.502,0.06,0.754
		c-0.576-0.523-0.648-0.658-1.225-0.746c-0.073-0.659-0.378-1.126-1.195-1.508c0.188-0.468,0.195-0.847,0.307-1.649
		c-0.25,0.021-0.503,0.039-0.754,0.06c-0.099-0.061-0.182-0.114-0.251-0.16c0.033-0.086,0.072-0.189,0.117-0.313
		c-0.502,0.041-1.005,0.081-1.508,0.12c0.052,0.155,0.104,0.311,0.156,0.465c-0.009,0.003-0.016,0.006-0.022,0.009
		C75.116,0.395,74.97,0.19,74.82,0h-0.755c0.01,0.118,0.02,0.235,0.027,0.353C72.836,0.456,71.58,0.554,70.324,0.654 M77.022,2.503
		c0.074,0.177,0.149,0.355,0.225,0.532c-0.219-0.038-0.399-0.036-0.549,0.002C76.831,2.833,76.937,2.659,77.022,2.503"/>
	<path clip-path="url(#SVGID_2_)" fill="#696158" d="M86.66,0.868C86.69,1.246,86.72,1.624,86.75,2
		c0.251-0.02,0.503-0.039,0.754-0.059C86.927,0.854,87.485,1.487,86.66,0.868"/>
	<path clip-path="url(#SVGID_2_)" fill="#696158" d="M84.17,2.966c-0.493,0.165-0.985,0.331-1.478,0.496
		c0.287,0.658,0.46,1.035,0.688,1.305h2.063C85.329,4.055,85.055,3.5,84.17,2.966"/>
	<path clip-path="url(#SVGID_2_)" fill="#696158" d="M85.559,1.336c-0.63,0.05-1.258,0.101-1.886,0.152
		c0.282,0.357,0.563,0.713,0.845,1.071C85.184,1.977,85.109,2.152,85.559,1.336"/>
	<path clip-path="url(#SVGID_2_)" fill="#696158" d="M81.491,0h-0.298c0.032,0.053,0.064,0.106,0.096,0.159
		C81.356,0.105,81.425,0.053,81.491,0"/>
	<path clip-path="url(#SVGID_2_)" fill="#696158" d="M90.16,0h-1.237c0.334,0.157,0.783,0.261,1.508,0.568
		C90.268,0.262,90.199,0.099,90.16,0"/>
	<path clip-path="url(#SVGID_2_)" fill="#696158" d="M92.02,4.768h0.304c0.729-0.416,0.862-0.426,1.366-1.424
		c-0.378,0.031-0.756,0.061-1.132,0.091C92.378,3.879,92.199,4.323,92.02,4.768"/>
	<path clip-path="url(#SVGID_2_)" fill="#696158" d="M91.787,0c-0.336,0.266-0.605,0.513-0.918,1.293
		c-0.252,0.019-0.503,0.04-0.755,0.06c0.053,0.089,0.106,0.178,0.16,0.266c0.064,0.92,0.129,1.84,0.192,2.76
		c-0.952,0.138-1.7,0.23-2.282,0.389h3.499c-0.073-0.59-0.179-1.238-0.314-1.813c0.135,0.055,0.27,0.108,0.404,0.162
		c0.326-0.656,0.654-1.316,0.981-1.975c-0.02-0.252-0.042-0.502-0.061-0.754c0.164,0.493,0.329,0.985,0.497,1.479
		c0.262,0.106,0.523,0.21,0.784,0.317c-0.02-0.252-0.04-0.503-0.06-0.755C94.108,0.952,94.301,0.477,94.494,0H91.787z"/>
	<path clip-path="url(#SVGID_2_)" fill="#696158" d="M95.017,0.96C95.874,0.642,96.729,0.321,97.586,0h-2.38
		C95.133,0.277,95.068,0.588,95.017,0.96"/>
	<path clip-path="url(#SVGID_2_)" fill="#696158" d="M80.581,2.009c-0.533-0.337-1.066-0.673-1.6-1.01
		c0.166,0.492,0.333,0.985,0.498,1.479C79.847,2.323,80.215,2.166,80.581,2.009"/>
	<path clip-path="url(#SVGID_2_)" fill="#696158" d="M78.288,1.813c0.271,0.232,0.542,0.461,0.814,0.693
		C78.516,1.832,79.054,2.28,78.288,1.813"/>
	<path clip-path="url(#SVGID_2_)" fill="#696158" d="M83.232,2.578c0.111-0.025,0.224-0.05,0.336-0.076
		c0.021,0.021,0.029,0.031,0.049,0.05c0.318-0.021,0.633-0.042,0.942-0.061c-0.138-0.502-0.068-0.608,0.366-0.607
		c-0.099-0.433-0.225-0.862-0.388-1.297c-0.715-0.083-1.46-0.162-2.218-0.24c-0.363,0.121-0.728,0.241-1.09,0.362
		c0.004-0.041,0.007-0.082,0.011-0.122c-0.029,0.07-0.057,0.141-0.086,0.212c-0.084-0.199-0.168-0.397-0.253-0.596
		c-0.4-0.04-0.798-0.081-1.192-0.121c0.289,0.666,0.438,1.629,0.484,2.731C81.197,2.724,82.229,2.647,83.232,2.578"/>
	<path clip-path="url(#SVGID_2_)" fill="#696158" d="M77.775,1.063c-0.394,0.032-0.787,0.063-1.18,0.094
		c0.087,0.136,0.174,0.256,0.26,0.36c0.371-0.03,0.743-0.06,1.113-0.09C77.893,1.305,77.83,1.185,77.775,1.063"/>
	<path clip-path="url(#SVGID_2_)" fill="#696158" d="M76.426,3.25c0.126-0.02,0.253-0.039,0.384-0.058
		c-0.039-0.046-0.074-0.089-0.123-0.144c1.704-0.443,0.541-0.728,1.887-0.15c-0.011-0.03-0.021-0.061-0.031-0.091
		c-0.774-0.55-1.239-0.749-1.688-1.29c-0.096,0.008-0.191,0.016-0.287,0.023c-0.365,1.193-0.216,0.893-0.801,1.406
		c0.328-0.093,0.656-0.186,0.984-0.279C76.643,2.861,76.534,3.055,76.426,3.25"/>
	<path clip-path="url(#SVGID_2_)" fill="#696158" d="M75.767,2.947c-0.143,0.041-0.286,0.081-0.429,0.122
		c0.072,0.023,0.137,0.043,0.217,0.069C75.638,3.06,75.703,3.003,75.767,2.947"/>
	<path clip-path="url(#SVGID_2_)" fill="#696158" d="M75.338,3.069c-0.149-0.048-0.287-0.092-0.41-0.132
		c-0.011,0.086-0.021,0.172-0.034,0.258C75.042,3.153,75.19,3.111,75.338,3.069"/>
	<path clip-path="url(#SVGID_2_)" fill="#696158" d="M79.386,2.889c0.262-0.026,0.525-0.05,0.794-0.074
		c-0.177-1.299-0.706-1.818-0.593-2.651c-0.059-0.048-0.098-0.069-0.15-0.109C79.259,0.036,79.089,0.018,78.912,0h-0.931
		c-0.004,0-0.008,0-0.012,0H77.65c-0.118,0.299-0.055,0.67,0.125,1.064c0.341-0.028,0.682-0.055,1.023-0.082
		C78.994,1.617,79.19,2.253,79.386,2.889"/>
	<path clip-path="url(#SVGID_2_)" fill="#696158" d="M88.318,1.362c-0.046,0.377-0.058,0.656-0.054,0.899
		c1.403-0.095,2.168-0.176,1.716-0.269c0.253-0.422-0.932-0.758-2.778-1.051c-0.172,0.261-0.551,0.2-0.831,0.577
		C87.021,1.466,87.67,1.414,88.318,1.362"/>
	<path clip-path="url(#SVGID_2_)" fill="#696158" d="M73.574,1.135c-0.115,0.085-0.25,0.178-0.432,0.299
		c0.004,0.048,0.008,0.096,0.012,0.144c0.278-0.07,0.558-0.139,0.836-0.209c0.031,0.407,0.065,0.814,0.098,1.221
		c0.234,0.135,0.494,0.233,0.841,0.346C75.058,1.958,75.187,0.979,75.315,0h-0.888c-0.225,0.42-0.318,0.632-0.486,0.819
		c0.319,0.153,0.601,0.316,0.801,0.49C74.302,1.248,73.923,1.189,73.574,1.135"/>
	<path clip-path="url(#SVGID_2_)" fill="#696158" d="M73.154,1.578c-0.466,0.116-0.933,0.233-1.398,0.349
		c0.01,0.126,0.021,0.252,0.03,0.378c0.935,0.834,0.663,0.792,2.354,0.951c-0.018-0.222-0.034-0.444-0.053-0.666
		c-0.285-0.163-0.546-0.384-0.916-0.779C73.166,1.733,73.16,1.656,73.154,1.578"/>
	<path clip-path="url(#SVGID_2_)" fill="#696158" d="M97.527,0c-0.018,0.209-0.034,0.418-0.052,0.626
		c0.9,0.708,0.883,0.528,1.382,1.635c0.128,0.01,0.252,0.021,0.377,0.032c1.016-0.679,1.082-0.942,1.697-2.135
		c-0.042-0.063-0.068-0.106-0.103-0.158H97.527z"/>
	<path clip-path="url(#SVGID_2_)" fill="#696158" d="M73.574,1.135c0.164-0.12,0.28-0.219,0.367-0.316
		C73.308,0.515,72.528,0.248,71.897,0h-0.822c-0.17,0.421-0.341,0.841-0.51,1.263C71.479,0.833,72.237,0.929,73.574,1.135"/>
	<path clip-path="url(#SVGID_2_)" fill="#696158" d="M101.339,4.367c-0.241-0.147-0.481-0.292-0.723-0.44
		c0.377,0.032,0.755,0.064,1.131,0.096c0.042-0.502,0.084-1.006,0.125-1.509c-1.967,0.239-2.14,0.251-2.827,2.041
		c-1.732-1.47-1.835-1.757-3.926-2.984c-0.126-0.011-0.253-0.021-0.378-0.031c-0.01,0.126-0.021,0.25-0.03,0.377
		c1.178,1.729,1.638,1.813,1.668,2.853h4.573"/>
	<path clip-path="url(#SVGID_2_)" fill="#696158" d="M97.148,0h-0.377c0.12,0.073,0.239,0.146,0.359,0.218
		C97.137,0.145,97.143,0.073,97.148,0"/>
	<path clip-path="url(#SVGID_2_)" fill="#696158" d="M97.035,1.349c0.021-0.25,0.042-0.501,0.062-0.753
		c-0.25-0.021-0.501-0.042-0.754-0.063C96.813,1.292,96.354,0.762,97.035,1.349"/>
	<path clip-path="url(#SVGID_2_)" fill="#696158" d="M86.294,4.53c0.304,0.002,0.596,0.003,0.882,0.005
		c-0.012-0.015-0.021-0.024-0.033-0.041c0.097-0.387,0.191-0.773,0.287-1.161c0.62,0.375,1.023,0.738,1.346,1.211
		c0.173,0.001,0.335,0.002,0.49,0.003c-0.581-1.148-0.983-1.301-1.001-2.287c-0.609,0.041-1.334,0.085-2.141,0.134
		C86.181,3.106,86.237,3.818,86.294,4.53"/>
	<path clip-path="url(#SVGID_2_)" fill="#696158" d="M55.706,0.55c0.397,0.223,0.796,0.444,1.191,0.665
		c-0.019-0.252-0.04-0.505-0.062-0.755C56.46,0.491,56.082,0.521,55.706,0.55"/>
	<path clip-path="url(#SVGID_2_)" fill="#696158" d="M57.546,4.578c0.005,0.063,0.011,0.126,0.016,0.189h0.452
		C57.857,4.705,57.701,4.642,57.546,4.578"/>
	<path clip-path="url(#SVGID_2_)" fill="#696158" d="M44.98,4.064c-0.245-0.081-0.361-0.35-0.378,0.028
		c-0.376,0.031-0.754,0.062-1.131,0.091c0.177,0.251,0.305,0.433,0.42,0.584h1.84C45.69,4.62,45.556,4.517,44.98,4.064"/>
	<path clip-path="url(#SVGID_2_)" fill="#696158" d="M61.394,0.477C61.208,0.317,61.021,0.159,60.835,0h-0.074
		C61.037,0.346,60.732,0.074,61.394,0.477"/>
	<path clip-path="url(#SVGID_2_)" fill="#696158" d="M71.123,3.496c0.251-0.021,0.501-0.04,0.754-0.061
		c-0.021-0.251-0.041-0.502-0.06-0.753C71.145,3.268,71.591,2.729,71.123,3.496"/>
	<path clip-path="url(#SVGID_2_)" fill="#696158" d="M81.08,4.598c0.038,0.066,0.067,0.116,0.099,0.17h1.323
		C82.027,4.711,81.554,4.655,81.08,4.598"/>
	<path clip-path="url(#SVGID_2_)" fill="#696158" d="M66.369,4.768h1.081c-0.148-0.188-0.298-0.376-0.446-0.565
		C66.639,4.521,66.497,4.615,66.369,4.768"/>
	<path clip-path="url(#SVGID_2_)" fill="#696158" d="M64.701,4.768h0.07c0-0.002,0-0.004,0-0.006
		C64.748,4.764,64.725,4.766,64.701,4.768"/>
	<path clip-path="url(#SVGID_2_)" fill="#696158" d="M59.748,3.646c-0.187,0.372-0.371,0.747-0.557,1.122h1.828
		c-0.162-0.269-0.324-0.537-0.486-0.806C60.271,3.855,60.01,3.749,59.748,3.646"/>
	<path clip-path="url(#SVGID_2_)" fill="#696158" d="M57.833,3.418c0.377-0.03,0.754-0.06,1.132-0.09
		c0.21-0.524,0.421-1.046,0.633-1.569C58.499,2.436,58.417,2.26,57.833,3.418"/>
	<path clip-path="url(#SVGID_2_)" fill="#696158" d="M90.944,4.572c0.028-0.002-0.012-0.004-0.097-0.008
		c0.001,0.005,0.002,0.009,0.004,0.012c-0.207,0.017-0.415,0.033-0.622,0.049c-0.027,0.052-0.038,0.097-0.05,0.142h2.233
		C91.964,3.293,91.802,1.791,91.889,0h-0.782c-0.665,1.05-0.813,2.669-0.463,3.963c0.071-0.174,0.141-0.349,0.212-0.524
		C90.884,3.817,90.914,4.195,90.944,4.572"/>
	<path clip-path="url(#SVGID_2_)" fill="#696158" d="M87.226,0h-1.113c0.077,0.127,0.153,0.254,0.23,0.382
		c-0.378,0.029-0.755,0.059-1.13,0.089C85.238,0.314,85.265,0.157,85.29,0h-0.995c0.091,0.198,0.171,0.394,0.242,0.587
		c0.972,0.112,1.877,0.229,2.665,0.354C87.303,0.79,87.324,0.516,87.226,0"/>
	<path clip-path="url(#SVGID_2_)" fill="#696158" d="M77.909,4.09c0.639,0.075,1.276,0.151,1.915,0.227
		c-0.043-0.142-0.087-0.283-0.131-0.426c-0.822-0.011-1.455,0.037-2.027,0.064C77.737,3.995,77.815,4.038,77.909,4.09"/>
	<path clip-path="url(#SVGID_2_)" fill="#696158" d="M80.206,3.107c0.003,0.133,0.004,0.268,0.005,0.405
		c0.008,0.005,0.016,0.012,0.023,0.016C80.232,3.374,80.218,3.243,80.206,3.107"/>
	<path clip-path="url(#SVGID_2_)" fill="#696158" d="M79.412,2.975c0.094,0.306,0.188,0.61,0.281,0.917
		c0.166,0.002,0.329,0.004,0.513,0.012c0.003-0.131,0.005-0.262,0.005-0.391C79.938,3.361,79.671,3.175,79.412,2.975"/>
	<path clip-path="url(#SVGID_2_)" fill="#696158" d="M80.206,3.903c-0.002,0.128,0,0.252-0.004,0.382
		c0.093-0.007,0.187-0.014,0.279-0.021c-0.072-0.12-0.145-0.239-0.216-0.359C80.243,3.903,80.228,3.904,80.206,3.903"/>
	<path clip-path="url(#SVGID_2_)" fill="#696158" d="M77.969,1.428c0.07,0.113,0.138,0.227,0.223,0.34
		c-0.039-0.116-0.078-0.232-0.117-0.349C78.04,1.422,78.004,1.425,77.969,1.428"/>
	<path clip-path="url(#SVGID_2_)" fill="#696158" d="M86.371,1.518c-0.104,0.008-0.21,0.017-0.314,0.025
		c0.01,0.124,0.02,0.248,0.03,0.371c0.032,0.001,0.056,0.002,0.091,0.002C86.231,1.744,86.299,1.616,86.371,1.518"/>
	<path clip-path="url(#SVGID_2_)" fill="#696158" d="M86.124,2.395c-0.013-0.16-0.025-0.32-0.038-0.481
		c-0.537-0.002-0.908-0.029-1.16-0.029c0.043,0.19,0.083,0.383,0.119,0.576C85.415,2.438,85.778,2.416,86.124,2.395"/>
	<path clip-path="url(#SVGID_2_)" fill="#696158" d="M80.481,4.264c0.048,0.08,0.097,0.16,0.145,0.24
		c0.653,0.003,1.316,0.006,1.977,0.009c-0.294-0.209-0.511-0.299-0.687-0.363C81.437,4.188,80.96,4.226,80.481,4.264"/>
	<path clip-path="url(#SVGID_2_)" fill="#696158" d="M76.709,4.33c0.024-0.052,0.041-0.097,0.068-0.151
		C76.594,4.227,76.581,4.278,76.709,4.33"/>
	<path clip-path="url(#SVGID_2_)" fill="#696158" d="M74.278,4.768h2.247c0.035-0.093,0.067-0.185,0.112-0.283
		c-0.902-0.005-1.675-0.01-2.24-0.016C74.347,4.574,74.312,4.671,74.278,4.768"/>
	<path clip-path="url(#SVGID_2_)" fill="#696158" d="M76.638,4.484c0.261,0.001,0.535,0.003,0.816,0.005
		c-0.361-0.055-0.621-0.108-0.745-0.159C76.683,4.383,76.661,4.434,76.638,4.484"/>
	<path clip-path="url(#SVGID_2_)" fill="#696158" d="M79.386,2.889c-0.025,0.002-0.05,0.005-0.074,0.007
		c0.033,0.027,0.066,0.053,0.1,0.079C79.403,2.946,79.395,2.918,79.386,2.889"/>
	<path clip-path="url(#SVGID_2_)" fill="#696158" d="M78.565,2.973c0.245-0.027,0.493-0.052,0.746-0.077
		c-0.427-0.342-0.819-0.73-1.119-1.128c0.117,0.346,0.233,0.692,0.351,1.039c0.042,0.03,0.078,0.054,0.123,0.087
		C78.633,2.92,78.6,2.947,78.565,2.973"/>
	<path clip-path="url(#SVGID_2_)" fill="#696158" d="M77.667,3.955c-0.144-0.081-0.242-0.141-0.321-0.197
		c-0.42,0.034-0.839,0.067-1.259,0.102c0.113-0.203,0.226-0.406,0.339-0.609c-1.909,0.3-3.192,0.687-3.042,1.199
		c-0.078,0.007,0.308,0.013,1.013,0.02c0.116-0.243,0.277-0.52,0.528-0.896C76.062,3.978,76.81,3.996,77.667,3.955"/>
	<path clip-path="url(#SVGID_2_)" fill="#696158" d="M77.347,3.759c0.083-0.007,0.165-0.014,0.248-0.021
		c0.322-0.254,0.646-0.51,0.971-0.765c-0.618,0.067-1.208,0.139-1.755,0.219C77.076,3.507,77.155,3.623,77.347,3.759"/>
	<path clip-path="url(#SVGID_2_)" fill="#696158" d="M80.193,2.813c-0.005,0-0.01,0.001-0.015,0.001
		c0.012,0.091,0.02,0.193,0.027,0.293C80.204,3.006,80.198,2.912,80.193,2.813"/>
	<path clip-path="url(#SVGID_2_)" fill="#696158" d="M76.654,0h-0.59c0.021,0.272,0.043,0.545,0.065,0.817
		c-0.24,0.144-0.483,0.291-0.726,0.436c0.397-0.031,0.794-0.063,1.19-0.095c-0.128-0.2-0.26-0.426-0.403-0.723
		C76.347,0.29,76.501,0.145,76.654,0"/>
	<path clip-path="url(#SVGID_2_)" fill="#696158" d="M79.666,0h-0.309c0.028,0.02,0.05,0.032,0.079,0.055
		c0.091,0.009,0.182,0.018,0.273,0.028C79.696,0.052,79.681,0.029,79.666,0"/>
	<path clip-path="url(#SVGID_2_)" fill="#696158" d="M83.363,0h-2.547c0.028,0.068,0.057,0.136,0.086,0.203
		c0.473,0.048,0.947,0.096,1.418,0.144C82.667,0.231,83.016,0.116,83.363,0"/>
	<path clip-path="url(#SVGID_2_)" fill="#696158" d="M94.867,0.029c0.06-0.01,0.12-0.02,0.18-0.029h-0.162
		C94.879,0.009,94.873,0.019,94.867,0.029"/>
	<path clip-path="url(#SVGID_2_)" fill="#696158" d="M86.119,4.768h0.194c-0.007-0.079-0.014-0.158-0.02-0.237
		c-0.051,0-0.104,0-0.154-0.001C86.132,4.609,86.126,4.688,86.119,4.768"/>
	<path clip-path="url(#SVGID_2_)" fill="#696158" d="M87.364,4.768h1.542c-0.044-0.073-0.084-0.154-0.131-0.224
		c-0.478-0.003-1.016-0.006-1.6-0.009C87.244,4.623,87.304,4.693,87.364,4.768"/>
	<path clip-path="url(#SVGID_2_)" fill="#696158" d="M82.921,4.768h0.355C83.27,4.684,83.263,4.6,83.256,4.517
		c-0.217-0.001-0.435-0.002-0.653-0.003C82.698,4.581,82.808,4.671,82.921,4.768"/>
	<path clip-path="url(#SVGID_2_)" fill="#696158" d="M90.644,3.963c-0.035,0.087-0.069,0.174-0.105,0.263
		c-0.126,0.126-0.21,0.233-0.271,0.33c0.274,0.004,0.469,0.007,0.58,0.01C90.765,4.377,90.7,4.172,90.644,3.963"/>
	<path clip-path="url(#SVGID_2_)" fill="#696158" d="M90.229,4.625c0.011-0.021,0.023-0.045,0.039-0.069
		c-0.268-0.003-0.608-0.005-1.003-0.008c0.026,0.053,0.051,0.091,0.077,0.147C89.639,4.672,89.935,4.648,90.229,4.625"/>
	<path clip-path="url(#SVGID_2_)" fill="#696158" d="M79.913,4.768h0.462c0.109-0.046,0.218-0.092,0.326-0.138
		c-0.024-0.042-0.05-0.083-0.076-0.125c-1.116-0.006-2.197-0.011-3.171-0.017C78.039,4.577,78.906,4.671,79.913,4.768"/>
	<path clip-path="url(#SVGID_2_)" fill="#696158" d="M85.294,4.053c-0.079-0.563-0.155-1.084-0.249-1.592
		c-0.161,0.009-0.321,0.019-0.486,0.03c0.049,0.176,0.111,0.385,0.201,0.675c-1.131-0.387-0.501,0.019-1.143-0.614
		c-0.128,0.009-0.256,0.017-0.385,0.026c-0.758,0.171-1.516,0.343-2.272,0.513c0.384,0.88,0.587,0.923,0.956,1.058
		c0.434-0.034,0.869-0.069,1.302-0.104c0.015,0.158,0.026,0.314,0.038,0.471c0.998,0.006,1.977,0.01,2.883,0.015
		c0.019-0.225,0.036-0.447,0.057-0.671C85.172,3.609,85.581,3.478,85.294,4.053"/>
	<path clip-path="url(#SVGID_2_)" fill="#696158" d="M89.145,0h-0.742c0.159,0.047,0.345,0.103,0.581,0.169
		C89.048,0.102,89.088,0.059,89.145,0"/>
	<path clip-path="url(#SVGID_2_)" fill="#696158" d="M105.72,3.215c-0.036-0.003-0.072-0.006-0.108-0.009
		c-1.152-1.407-0.695-1.111,0.088-2.408c0.007,0.007,0.013,0.015,0.021,0.022V0h-0.978c0.152,0.108,0.312,0.205,0.454,0.326
		c-0.444-0.147-0.824-0.231-1.188-0.326h-1.737"/>
	<path clip-path="url(#SVGID_2_)" fill="#696158" d="M50.396,0.596c-1.025-0.173-2.052-0.343-3.078-0.514
		c0.021,0.25,0.041,0.502,0.061,0.755c-0.212,0.522-0.421,1.045-0.634,1.568c0.523,0.211,1.046,0.422,1.568,0.634
		c-0.424,1.819,0.367,0.94-1.388,1.628c0.044,0.039,0.079,0.065,0.12,0.101h7.58c0.231-0.193,0.539-0.423,0.977-0.793
		c-0.041-0.502-0.081-1.004-0.121-1.508C54.639,3.041,53.8,3.612,52.96,4.186c0.978-1.162,1.369-1.245,1.645-3.167
		C53.412,1.271,53.089,0.753,52.191,0h-1.76C50.419,0.177,50.407,0.366,50.396,0.596"/>
	<path clip-path="url(#SVGID_2_)" fill="#696158" d="M63.84,0c-0.783,0.697-1.869,0.957-3.17,0.914
		c0.04,0.503,0.08,1.005,0.12,1.509c2.469-0.372,3.71-0.359,4.028-1.839c0.377-0.031,0.754-0.06,1.13-0.091
		c0.135,1.535-0.02,2.446,1.402,3.303c0.493-0.165,0.987-0.331,1.479-0.496c-0.634-1.452-0.707-1.548-2.065-2.114
		c0.222-0.395,0.441-0.79,0.66-1.186H63.84z"/>
	<path clip-path="url(#SVGID_2_)" fill="#696158" d="M68.332,1.82c0.252-0.018,0.503-0.038,0.755-0.06
		C68.389,1.471,68.962,1.398,68.332,1.82"/>
	<path clip-path="url(#SVGID_2_)" fill="#696158" d="M58.724,0.311C58.467,0.208,58.211,0.104,57.955,0h-0.774
		c0.011,0.144,0.022,0.287,0.033,0.431C57.718,0.39,58.22,0.35,58.724,0.311"/>
	<path clip-path="url(#SVGID_2_)" fill="#696158" d="M54.575,0.641C54.453,0.364,54.346,0.167,54.248,0h-1.036
		C53.666,0.213,54.121,0.427,54.575,0.641"/>
	<path clip-path="url(#SVGID_2_)" fill="#696158" d="M104.603,4.788c0.058-0.145,0.115-0.287,0.174-0.432
		c-0.522-0.21-1.046-0.422-1.568-0.634c0.424-1.818-0.367-0.939,1.388-1.628c-0.151-0.133-0.285-0.242-0.405-0.335
		c-0.073-0.182-0.146-0.366-0.219-0.548c-0.083,0.07-0.166,0.14-0.249,0.21c-0.407-0.282-0.556-0.387-0.784-1.091
		c-1.363,0.36-2.728,0.723-4.09,1.084c-0.106-0.202-0.213-0.403-0.318-0.605c0.055-0.013,0.109-0.027,0.164-0.04
		c-0.164-0.193-0.326-0.385-0.489-0.578C98.172,0.127,98.138,0.063,98.104,0h-0.508c-0.107,1.847-0.197,1.533-1.676,2.788
		c0.041,0.502,0.081,1.004,0.121,1.508c0.195-0.135,0.393-0.268,0.587-0.4c-0.038,0.044-0.073,0.081-0.104,0.109
		c0.44,0.03,0.761-0.057,1.004-0.209c-0.172,0.256-0.305,0.558-0.415,0.972h3.839"/>
	<path clip-path="url(#SVGID_2_)" fill="#696158" d="M98.318,2.743c0.081-0.055,0.162-0.111,0.242-0.166
		c-0.14,0.168-0.269,0.313-0.387,0.445C98.225,2.926,98.272,2.832,98.318,2.743"/>
	<path clip-path="url(#SVGID_2_)" fill="#696158" d="M105.72,1.488v-0.23c-0.02-0.003-0.032-0.004-0.053-0.007
		C105.692,1.345,105.706,1.417,105.72,1.488"/>
	<path clip-path="url(#SVGID_2_)" fill="#696158" d="M53.72,1.262c0.22,0.187,0.438,0.373,0.657,0.561
		c0.126-0.011,0.253-0.021,0.378-0.03c-0.024-0.307-0.049-0.614-0.072-0.92c0.124-0.067,0.245-0.14,0.36-0.22
		c0.03,0.37,0.06,0.739,0.09,1.11c0.305-0.025,0.609-0.048,0.915-0.072c-0.083,0.272-0.201,0.562-0.373,0.892
		c1.142-0.298,2.092-0.684,2.94-1.098c0.347-0.027,0.694-0.055,1.041-0.083c-0.558,0.852-1.168,1.149-1.733,2.034
		c0.418,0.483,0.659,0.694,0.849,1.021c-0.506-0.428-0.894-0.515-1.875-0.833c-0.26,0.245-0.416,0.366-0.521,0.454
		c-0.223-0.159-0.447-0.304-0.67-0.433c-0.511-0.594-0.376-0.54-1.164-0.973c-0.638-0.075-1.275-0.15-1.915-0.227
		c0.238,0.775,0.477,1.549,0.716,2.322h0.841c-0.102-0.301-0.203-0.602-0.305-0.902c1.301,0.558,0.258,0.311,1.726-0.106
		c-0.087,0.215-0.174,0.429-0.261,0.644c-0.202,0.122-0.402,0.243-0.604,0.365h5.198c0.038-0.153,0.076-0.308,0.114-0.461
		c0.215,0.137,0.497,0.234,0.889,0.331c0.015,0.044,0.03,0.087,0.044,0.13h6.166c0.302-0.202,0.604-0.347,0.939-0.537
		c0.824-0.187,1.648-0.373,2.474-0.559c-0.644-1.473-0.768-0.6-2.035-1.735c0.637,0.076,1.276,0.151,1.914,0.228
		c-1.034-1.785-0.795-1.37-2.759-1.299C68.25,0.403,68.675,0.17,68.991,0h-6.193c0.39,1.358,0.522,0.89,1.579,2.267
		c-0.095,0.388-0.19,0.774-0.284,1.162c-0.21-0.125-0.395-0.25-0.56-0.379c0.016-0.021,0.03-0.043,0.046-0.064
		c-0.146-0.24-0.291-0.483-0.437-0.724c-0.148-0.037-0.296-0.073-0.443-0.11c-0.271-0.415-0.487-0.919-0.732-1.59
		c-1.619,0.973-0.009,0.874-0.868,1.853c-0.174-0.786-0.389-1.201-0.854-1.802C60.617,0.402,60.979,0.196,61.343,0h-5.529
		c-0.022,0.007-0.043,0.016-0.065,0.023c0.007-0.007,0.013-0.015,0.02-0.023"/>
	<path clip-path="url(#SVGID_2_)" fill="#696158" d="M52.328,4.768c-0.073-0.701-0.108-1.461-0.078-2.292"/>
	<path clip-path="url(#SVGID_2_)" fill="#696158" d="M70.324,0.654c0.567,0.589,0.91,0.599,1.597,1.013
		c-0.366,0.154-0.734,0.31-1.101,0.465c0.146,0.242,0.292,0.485,0.437,0.726c2.452,0.123,3.24-0.379,5.202,0.285
		c-0.175,0.121-0.278,0.317-0.328,0.566c-0.453,0.129-0.907,0.257-1.359,0.387c0.221-0.397,0.442-0.795,0.663-1.193
		c-0.503,0.04-1.005,0.08-1.508,0.12c-0.308,0.243-0.617,0.487-0.925,0.731c-0.279,0.021-0.559,0.044-0.838,0.065
		c-0.282-0.222-0.579-0.422-0.877-0.585c0.012,0.652,0.114,1.131,0.232,1.533h1.62c-0.23-0.273-0.49-0.542-0.78-0.788
		c0.401,0.163,0.805,0.325,1.207,0.489c-0.003-0.041-0.007-0.082-0.011-0.122c0.234,0.151,0.434,0.28,0.617,0.421h5.587
		c-0.001-0.011-0.002-0.022-0.003-0.035c0.472-0.037,0.942-0.074,1.412-0.112c-0.03-0.377-0.06-0.755-0.091-1.131
		c-0.282,0.021-0.565,0.045-0.85,0.067c0.037-0.066,0.091-0.16,0.171-0.291c-0.252,0.022-0.503,0.041-0.755,0.062
		c0.008,0.091,0.016,0.184,0.022,0.275c-0.032,0.003-0.065,0.005-0.097,0.008c0.02,0.25,0.04,0.502,0.06,0.754
		c-0.576-0.523-0.648-0.658-1.225-0.746c-0.073-0.659-0.378-1.126-1.195-1.508c0.188-0.468,0.195-0.847,0.307-1.649
		c-0.25,0.021-0.503,0.039-0.754,0.06c-0.099-0.061-0.182-0.114-0.251-0.16c0.033-0.086,0.072-0.189,0.117-0.313
		c-0.502,0.041-1.005,0.081-1.508,0.12c0.052,0.155,0.104,0.311,0.156,0.465c-0.009,0.003-0.016,0.006-0.022,0.009
		C75.116,0.395,74.97,0.19,74.82,0h-0.755c0.01,0.118,0.02,0.235,0.027,0.353C72.836,0.456,71.58,0.554,70.324,0.654 M77.022,2.503
		c0.074,0.177,0.149,0.355,0.225,0.532c-0.219-0.038-0.399-0.036-0.549,0.002C76.831,2.833,76.937,2.659,77.022,2.503"/>
	<path clip-path="url(#SVGID_2_)" fill="#696158" d="M86.66,0.868C86.69,1.246,86.72,1.624,86.75,2
		c0.251-0.02,0.503-0.039,0.754-0.059C86.927,0.854,87.485,1.487,86.66,0.868"/>
	<path clip-path="url(#SVGID_2_)" fill="#696158" d="M84.17,2.966c-0.493,0.165-0.985,0.331-1.478,0.496
		c0.287,0.658,0.46,1.035,0.688,1.305h2.063C85.329,4.055,85.055,3.5,84.17,2.966"/>
	<path clip-path="url(#SVGID_2_)" fill="#696158" d="M85.559,1.336c-0.63,0.05-1.258,0.101-1.886,0.152
		c0.282,0.357,0.563,0.713,0.845,1.071C85.184,1.977,85.109,2.152,85.559,1.336"/>
	<path clip-path="url(#SVGID_2_)" fill="#696158" d="M81.491,0h-0.298c0.032,0.053,0.064,0.106,0.096,0.159
		C81.356,0.105,81.425,0.053,81.491,0"/>
	<path clip-path="url(#SVGID_2_)" fill="#696158" d="M90.16,0h-1.237c0.334,0.157,0.783,0.261,1.508,0.568
		C90.268,0.262,90.199,0.099,90.16,0"/>
	<path clip-path="url(#SVGID_2_)" fill="#696158" d="M92.02,4.768h0.304c0.729-0.416,0.862-0.426,1.366-1.424
		c-0.378,0.031-0.756,0.061-1.132,0.091C92.378,3.879,92.199,4.323,92.02,4.768"/>
	<path clip-path="url(#SVGID_2_)" fill="#696158" d="M91.787,0c-0.336,0.266-0.605,0.513-0.918,1.293
		c-0.252,0.019-0.503,0.04-0.755,0.06c0.053,0.089,0.106,0.178,0.16,0.266c0.064,0.92,0.129,1.84,0.192,2.76
		c-0.952,0.138-1.7,0.23-2.282,0.389h3.499c-0.073-0.59-0.179-1.238-0.314-1.813c0.135,0.055,0.27,0.108,0.404,0.162
		c0.326-0.656,0.654-1.316,0.981-1.975c-0.02-0.252-0.042-0.502-0.061-0.754c0.164,0.493,0.329,0.985,0.497,1.479
		c0.262,0.106,0.523,0.21,0.784,0.317c-0.02-0.252-0.04-0.503-0.06-0.755C94.108,0.952,94.301,0.477,94.494,0H91.787z"/>
	<path clip-path="url(#SVGID_2_)" fill="#696158" d="M95.017,0.96C95.874,0.642,96.729,0.321,97.586,0h-2.38
		C95.133,0.277,95.068,0.588,95.017,0.96"/>
	<path clip-path="url(#SVGID_2_)" fill="#696158" d="M80.581,2.009c-0.533-0.337-1.066-0.673-1.6-1.01
		c0.166,0.492,0.333,0.985,0.498,1.479C79.847,2.323,80.215,2.166,80.581,2.009"/>
	<path clip-path="url(#SVGID_2_)" fill="#696158" d="M78.288,1.813c0.271,0.232,0.542,0.461,0.814,0.693
		C78.516,1.832,79.054,2.28,78.288,1.813"/>
	<path clip-path="url(#SVGID_2_)" fill="#696158" d="M77.515,1.036c-1.199,0.584-0.37,0.459-1.842-0.186
		c-0.023-0.001-0.047-0.003-0.069-0.004c0.611,2.796,1.136,2.619-1.576,3.9c-0.584-0.664-0.407-0.59-1.225-1.037
		c0.323-0.66,0.648-1.32,0.973-1.98c-1.441-0.661-2.688-0.194-3.079-0.502c-0.271-0.229-0.545-0.459-0.817-0.69
		C70.91,0.591,69.957,0.4,71.041,0.82c-0.032-0.136-0.068-0.255-0.104-0.377h6.292C77.314,0.675,77.407,0.885,77.515,1.036"/>
	<path clip-path="url(#SVGID_2_)" fill="#696158" d="M71.671,3.805c0.461,1.036,0.63,0.128,0.095,1.131
		c-0.157-0.367-0.314-0.734-0.471-1.101C71.42,3.825,71.545,3.813,71.671,3.805"/>
	<path clip-path="url(#SVGID_2_)" fill="#696158" d="M93.475,1.219c-0.377,0.032-0.754,0.064-1.13,0.096
		c0.132-0.295,0.227-0.582,0.338-0.872h0.904C93.564,0.677,93.538,0.936,93.475,1.219"/>
	<path clip-path="url(#SVGID_2_)" fill="#696158" d="M77.482,0.66c0.026-0.088,0.049-0.156,0.071-0.217h2.188
		c0.001,0.009,0.002,0.018,0.002,0.028C78.99,0.535,78.236,0.596,77.482,0.66"/>
	<path clip-path="url(#SVGID_2_)" fill="#696158" d="M55.993,2.458c0.113-0.136,0.229-0.274,0.346-0.409
		c0.502-0.042,1.004-0.084,1.507-0.125c-0.345,0.406-0.69,0.816-1.037,1.226c0.845,0.758,0.57,0.689,1.981,0.971
		c-1.092-0.389,1.68,0.38,2.67,0.157c0.021,0.695,0.053,0.615-0.057,0.932h-3.421c-0.104-0.161-0.205-0.354-0.294-0.615
		c-0.542,0.205-1.085,0.41-1.628,0.615h-0.977c-0.043-0.508-0.085-1.017-0.128-1.525C55.421,2.931,55.259,3.034,55.993,2.458"/>
	<path clip-path="url(#SVGID_2_)" fill="#696158" d="M61.938,0.442c-0.07,0.076-0.184,0.186-0.385,0.411
		c-0.083-0.136-0.166-0.274-0.25-0.411H61.938z"/>
	<path clip-path="url(#SVGID_2_)" fill="#696158" d="M66.519,1.197c0.442-0.612,0.124-0.02-0.065-0.755
		c0.767,0.064,1.53,0.125,2.293,0.189c-0.312,0.786-0.627,1.571-0.939,2.358C67.227,1.408,67.461,2.042,66.519,1.197"/>
	<path clip-path="url(#SVGID_2_)" fill="#696158" d="M105.447,3.224c-0.704-0.229-0.809-0.378-1.091-0.785
		c0.07-0.083,0.14-0.167,0.21-0.249c-0.182-0.073-0.366-0.145-0.548-0.218c-0.093-0.12-0.202-0.254-0.335-0.406
		c-0.689,1.755,0.189,0.963-1.629,1.387c-0.212-0.522-0.423-1.045-0.633-1.567c-0.145,0.058-0.288,0.116-0.432,0.174
		c-0.214-0.375-0.456-0.718-0.764-1.118H96.86c-0.675,1.215-0.281,1.02-1.504,0.839c0.401,0.66,0.126,0.354,0.47,0.627
		c0.201,0.956,0.402,1.908,0.604,2.861c0.796-0.675,0.938-1.009,1.35-2.011c-0.782-0.228-0.962-0.356-1.222-0.536
		c0.143,0.036,0.286,0.073,0.428,0.108c0.003,0.038,0.007,0.076,0.01,0.114c0.113-0.01,0.226-0.019,0.337-0.028
		c0.316,0.079,0.635,0.158,0.951,0.237c0.017-0.208,0.032-0.415,0.049-0.623c0.31,0.075,0.576,0.137,0.81,0.197"/>
	<path clip-path="url(#SVGID_2_)" fill="#696158" d="M104.29,0.442h0.23c0.003,0.019,0.004,0.032,0.007,0.051
		C104.434,0.47,104.361,0.456,104.29,0.442"/>
	<path clip-path="url(#SVGID_2_)" fill="#696158" d="M95.738,1.032c-0.401,0.243-0.802,0.488-1.203,0.731
		c-0.162,1.105-0.619,2.273-1.115,3.448h-2.418c0.871-1.054,0.824-1.534,2.634-1.41c0.003-1.119,0.006-2.238,0.009-3.358h2.569
		c-0.02,0.012-0.041,0.023-0.061,0.035C96.208,0.577,96.162,0.709,95.738,1.032"/>
	<path clip-path="url(#SVGID_2_)" fill="#696158" d="M64.539,4.78c0.167,0.129,0.303,0.273,0.416,0.43h-2.102
		c0.542-0.313,0.841-0.668,1.623-1.184C64.497,4.276,64.518,4.529,64.539,4.78"/>
	<path clip-path="url(#SVGID_2_)" fill="#696158" d="M80.185,1.194c-0.467,0.76-0.01,0.231-0.691,0.817
		C79.726,1.738,79.954,1.465,80.185,1.194"/>
	<path clip-path="url(#SVGID_2_)" fill="#696158" d="M91.871,2.142C91.767,1.88,91.66,1.62,91.554,1.357
		c0.366,0.157,0.733,0.312,1.102,0.468C92.395,1.931,92.133,2.037,91.871,2.142"/>
	<path clip-path="url(#SVGID_2_)" fill="#696158" d="M85.715,5.21c0.636-0.59,0.084-0.275,1.09,0H85.715z"/>
	<path clip-path="url(#SVGID_2_)" fill="#696158" d="M79.51,1.721c-0.115,0.135-0.229,0.273-0.346,0.408
		c-0.502,0.042-1.004,0.084-1.507,0.125c0.346-0.406,0.689-0.816,1.036-1.225c-0.339-0.304-0.497-0.472-0.657-0.586h2.507
		c0.001,0.017,0.002,0.034,0.004,0.05C80.082,1.247,80.244,1.145,79.51,1.721"/>
	<path clip-path="url(#SVGID_2_)" fill="#696158" d="M48.562,3.931c0.127-0.01,0.252-0.022,0.378-0.033
		c0.147,0.241,0.293,0.483,0.439,0.724C49.107,4.392,48.836,4.16,48.562,3.931"/>
	<path clip-path="url(#SVGID_2_)" fill="#696158" d="M68.984,2.98c-0.442,0.614-0.125,0.021,0.064,0.755
		c-0.768-0.064-1.53-0.125-2.293-0.189c0.312-0.785,0.627-1.57,0.939-2.358C68.276,2.77,68.042,2.136,68.984,2.98"/>
	<path clip-path="url(#SVGID_2_)" fill="#696158" d="M56.009,2.167c-0.231,0.273-0.461,0.546-0.691,0.818
		C55.785,2.225,55.328,2.754,56.009,2.167"/>
	<path clip-path="url(#SVGID_2_)" fill="#696158" d="M101.756,4.415c0.502-0.042,1.007-0.084,1.509-0.124"/>
	<path clip-path="url(#SVGID_2_)" fill="#696158" d="M100.121,3.034c1.825,0.724,0.014,0.873,1.289,1.79"/>
	<path clip-path="url(#SVGID_2_)" fill="#696158" d="M73.699,4.864c-0.126,0.01-0.252,0.02-0.377,0.032
		c0.248-1.397-0.089-0.768,0.627-1.572c0.146,0.24,0.295,0.482,0.44,0.724C74.16,4.32,73.929,4.592,73.699,4.864"/>
	<path clip-path="url(#SVGID_2_)" fill="#696158" d="M75.583,4.707c0.617-0.819-0.031-0.28,1.069-0.851
		c-0.23,0.273-0.462,0.546-0.692,0.819C75.836,4.687,75.709,4.696,75.583,4.707"/>
	<path clip-path="url(#SVGID_2_)" fill="#696158" d="M81.213,5.21H79.97c-0.06-0.032-0.117-0.064-0.176-0.097
		c0.241-0.147,0.481-0.293,0.724-0.44c0.261,0.105,0.522,0.209,0.784,0.314C81.272,5.062,81.242,5.136,81.213,5.21"/>
	<path clip-path="url(#SVGID_2_)" fill="#696158" d="M55.789,4.085c-0.011-0.128-0.022-0.253-0.031-0.378
		c0.753-0.063,1.508-0.124,2.262-0.188C57.783,4.32,57.679,3.93,58.436,4.23c-0.122-0.445-0.268-0.836-0.447-1.089
		c1.219-0.593,0.341-0.453,1.917,0.219c-0.396-1.827-0.756-2.396-0.229-2.918h2.976c0.018,0.01,0.028,0.016,0.048,0.027
		c-0.324,0.661-0.649,1.319-0.974,1.979c1.441,0.662,2.688,0.195,3.08,0.502c0.271,0.229,0.544,0.46,0.816,0.691
		c-1.031-0.053-0.078,0.137-1.162-0.283c0.214,0.866,0.458,1.431,0.718,1.852h-6.522c-0.056-0.286-0.116-0.576-0.187-0.851
		c0.024,0.284,0.048,0.567,0.071,0.851h-1.936C56.669,4.94,56.491,4.684,55.789,4.085"/>
	<path clip-path="url(#SVGID_2_)" fill="#696158" d="M67.634,4.991c0.006,0.073,0.012,0.146,0.018,0.22H67.01
		c-0.037-0.046-0.074-0.092-0.129-0.154C67.132,5.032,67.382,5.014,67.634,4.991"/>
	<path clip-path="url(#SVGID_2_)" fill="#696158" d="M69.901,5.21h-0.674c0.464-0.283,0.928-0.564,1.391-0.848
		C70.381,4.646,70.141,4.927,69.901,5.21"/>
	<path clip-path="url(#SVGID_2_)" fill="#696158" d="M92.326,5.21c0.423-0.996,0.588-0.744,2.202-0.95
		c-2.271-1.297-2.324-0.049-2.545-3.203c-1.228,1.524-1.171,1.421-3.235,2.169c-0.219,0.397-0.44,0.795-0.659,1.193
		c0.01,0.126,0.02,0.252,0.032,0.377c1.257-0.103,2.513-0.211,3.768-0.313c-0.253,0.363-0.47,0.551-0.711,0.728h-4.132
		c0.455-1.184,1.16-1.614,1.578-3.493c-1.09,0.597-2.181,1.195-3.27,1.792c-0.178-0.62-0.355-1.237-0.534-1.854
		c-0.831,0.665-1.048,1.298-1.729,2.042c-0.041-0.502-0.084-1.004-0.126-1.505c-0.148-0.958-0.02-1.229,0.147-1.75h1.554
		c0.019,0.028,0.039,0.055,0.058,0.082c0.007-0.031,0.016-0.052,0.023-0.082h17.814c0.003,0.037,0.006,0.072,0.009,0.108
		c1.407,1.152,1.111,0.695,2.408-0.088c-0.007-0.007-0.015-0.013-0.021-0.02h0.819v0.977c-0.107-0.152-0.205-0.311-0.325-0.453
		c0.146,0.444,0.23,0.824,0.325,1.187v1.737c-2.72-0.412-4.486-1.439-6.505-1.925"/>
	<path clip-path="url(#SVGID_2_)" fill="#696158" d="M77.515,1.036c-1.199,0.584-0.37,0.459-1.842-0.186
		c-0.023-0.001-0.047-0.003-0.069-0.004c0.611,2.796,1.136,2.619-1.576,3.9c-0.584-0.664-0.407-0.59-1.225-1.037
		c0.323-0.66,0.648-1.32,0.973-1.98c-1.441-0.661-2.688-0.194-3.079-0.502c-0.271-0.229-0.545-0.459-0.817-0.69
		C70.91,0.591,69.957,0.4,71.041,0.82c-0.032-0.136-0.068-0.255-0.104-0.377h6.292C77.314,0.675,77.407,0.885,77.515,1.036"/>
	<path clip-path="url(#SVGID_2_)" fill="#696158" d="M71.671,3.805c0.461,1.036,0.63,0.128,0.095,1.131
		c-0.157-0.367-0.314-0.734-0.471-1.101C71.42,3.825,71.545,3.813,71.671,3.805"/>
	<path clip-path="url(#SVGID_2_)" fill="#696158" d="M93.475,1.219c-0.377,0.032-0.754,0.064-1.13,0.096
		c0.132-0.295,0.227-0.582,0.338-0.872h0.904C93.564,0.677,93.538,0.936,93.475,1.219"/>
	<path clip-path="url(#SVGID_2_)" fill="#696158" d="M77.482,0.66c0.026-0.088,0.049-0.156,0.071-0.217h2.188
		c0.001,0.009,0.002,0.018,0.002,0.028C78.99,0.535,78.236,0.596,77.482,0.66"/>
	<path clip-path="url(#SVGID_2_)" fill="#696158" d="M55.993,2.458c0.113-0.136,0.229-0.274,0.346-0.409
		c0.502-0.042,1.004-0.084,1.507-0.125c-0.345,0.406-0.69,0.816-1.037,1.226c0.845,0.758,0.57,0.689,1.981,0.971
		c-1.092-0.389,1.68,0.38,2.67,0.157c0.021,0.695,0.053,0.615-0.057,0.932h-3.421c-0.104-0.161-0.205-0.354-0.294-0.615
		c-0.542,0.205-1.085,0.41-1.628,0.615h-0.977c-0.043-0.508-0.085-1.017-0.128-1.525C55.421,2.931,55.259,3.034,55.993,2.458"/>
	<path clip-path="url(#SVGID_2_)" fill="#696158" d="M61.938,0.442c-0.07,0.076-0.184,0.186-0.385,0.411
		c-0.083-0.136-0.166-0.274-0.25-0.411H61.938z"/>
	<path clip-path="url(#SVGID_2_)" fill="#696158" d="M66.519,1.197c0.442-0.612,0.124-0.02-0.065-0.755
		c0.767,0.064,1.53,0.125,2.293,0.189c-0.312,0.786-0.627,1.571-0.939,2.358C67.227,1.408,67.461,2.042,66.519,1.197"/>
	<path clip-path="url(#SVGID_2_)" fill="#696158" d="M105.447,3.224c-0.704-0.229-0.809-0.378-1.091-0.785
		c0.07-0.083,0.14-0.167,0.21-0.249c-0.182-0.073-0.366-0.145-0.548-0.218c-0.093-0.12-0.202-0.254-0.335-0.406
		c-0.689,1.755,0.189,0.963-1.629,1.387c-0.212-0.522-0.423-1.045-0.633-1.567c-0.145,0.058-0.288,0.116-0.432,0.174
		c-0.214-0.375-0.456-0.718-0.764-1.118H96.86c-0.675,1.215-0.281,1.02-1.504,0.839c0.401,0.66,0.126,0.354,0.47,0.627
		c0.201,0.956,0.402,1.908,0.604,2.861c0.796-0.675,0.938-1.009,1.35-2.011c-0.782-0.228-0.962-0.356-1.222-0.536
		c0.143,0.036,0.286,0.073,0.428,0.108c0.003,0.038,0.007,0.076,0.01,0.114c0.113-0.01,0.226-0.019,0.337-0.028
		c0.316,0.079,0.635,0.158,0.951,0.237c0.017-0.208,0.032-0.415,0.049-0.623c0.31,0.075,0.576,0.137,0.81,0.197"/>
	<path clip-path="url(#SVGID_2_)" fill="#696158" d="M104.29,0.442h0.23c0.003,0.019,0.004,0.032,0.007,0.051
		C104.434,0.47,104.361,0.456,104.29,0.442"/>
	<path clip-path="url(#SVGID_2_)" fill="#696158" d="M95.738,1.032c-0.401,0.243-0.802,0.488-1.203,0.731
		c-0.162,1.105-0.619,2.273-1.115,3.448h-2.418c0.871-1.054,0.824-1.534,2.634-1.41c0.003-1.119,0.006-2.238,0.009-3.358h2.569
		c-0.02,0.012-0.041,0.023-0.061,0.035C96.208,0.577,96.162,0.709,95.738,1.032"/>
	<path clip-path="url(#SVGID_2_)" fill="#696158" d="M64.539,4.78c0.167,0.129,0.303,0.273,0.416,0.43h-2.102
		c0.542-0.313,0.841-0.668,1.623-1.184C64.497,4.276,64.518,4.529,64.539,4.78"/>
	<path clip-path="url(#SVGID_2_)" fill="#696158" d="M80.185,1.194c-0.467,0.76-0.01,0.231-0.691,0.817
		C79.726,1.738,79.954,1.465,80.185,1.194"/>
	<path clip-path="url(#SVGID_2_)" fill="#696158" d="M91.871,2.142C91.767,1.88,91.66,1.62,91.554,1.357
		c0.366,0.157,0.733,0.312,1.102,0.468C92.395,1.931,92.133,2.037,91.871,2.142"/>
	<path clip-path="url(#SVGID_2_)" fill="#696158" d="M57.188,1.881l2.459,0.008C59.221,2.135,58.162,2.079,57.188,1.881"/>
	<path clip-path="url(#SVGID_2_)" fill="#696158" d="M0.059,5.268c0.4-0.292,0.742-0.521,1.117-0.723
		C1.118,4.409,1.06,4.273,1.001,4.137c0.523-0.197,1.046-0.398,1.568-0.599C2.146,1.819,2.937,2.65,1.182,1.999
		C1.333,1.873,1.468,1.77,1.587,1.682C1.661,1.51,1.732,1.336,1.806,1.164C1.889,1.23,1.973,1.296,2.055,1.362
		C2.462,1.095,2.611,0.997,2.84,0.331c1.362,0.34,2.727,0.683,4.088,1.025c0.107-0.191,0.213-0.381,0.319-0.572
		C7.192,0.771,7.139,0.759,7.083,0.746C7.248,0.564,7.411,0.382,7.572,0.2C7.606,0.139,7.64,0.079,7.673,0.018h0.507
		c0.108,1.746,0.198,1.45,1.676,2.636c-0.04,0.474-0.08,0.949-0.12,1.426C9.541,3.953,9.345,3.827,9.148,3.701
		c0.038,0.042,0.073,0.077,0.105,0.104C8.813,3.834,8.493,3.751,8.25,3.607c0.173,0.241,0.304,0.526,0.416,0.918H4.827"/>
	<path clip-path="url(#SVGID_2_)" fill="#696158" d="M7.459,2.611C7.378,2.559,7.297,2.506,7.217,2.454
		c0.14,0.159,0.269,0.296,0.387,0.42C7.553,2.784,7.505,2.695,7.459,2.611"/>
	<path clip-path="url(#SVGID_2_)" fill="#696158" d="M0.059,1.425V1.208C0.078,1.205,0.09,1.204,0.109,1.201
		C0.085,1.29,0.071,1.358,0.059,1.425"/>
	<path clip-path="url(#SVGID_2_)" fill="#696158" d="M65.244,4.525h-1.427c-0.083-0.85,0.031-1.736,0.36-2.441
		c-0.501-0.038-1.005-0.075-1.508-0.112c-0.119,0.235-0.232,0.428-0.336,0.593c0.127,0.01,0.255,0.019,0.381,0.029
		c-0.021,0.238-0.04,0.475-0.062,0.713c-0.195-0.112-0.394-0.224-0.591-0.337c-0.225,0.324-0.384,0.553-0.447,0.93
		c0.337-0.078,0.673-0.157,1.01-0.235c-0.128,0.286-0.258,0.573-0.387,0.86h-2.819c0.098-1.165,0.197-2.329,0.293-3.494
		c0.404,0.03,0.808,0.061,1.213,0.092c-0.108-0.161-0.215-0.322-0.323-0.483c0.344-0.08,0.688-0.159,1.031-0.24
		c-0.055-0.127-0.109-0.255-0.163-0.382h5.063c-0.415,0.823-0.742,1.619-0.958,2.431C65.396,3.116,65.299,3.807,65.244,4.525
		 M61.823,0.845c0.015,0.117,0.028,0.233,0.044,0.349c0.035,0.003,0.072,0.005,0.108,0.008C61.925,1.083,61.874,0.963,61.823,0.845"
		/>
	<path clip-path="url(#SVGID_2_)" fill="#696158" d="M58.268,4.525h-4.818c0.073-0.662,0.109-1.382,0.079-2.166
		c1.006,0.075,2.013,0.151,3.016,0.228c0.022-0.24,0.042-0.477,0.062-0.713c-1.469-0.274-3.139-0.264-4.547-0.663
		c-0.22,0.177-0.438,0.353-0.657,0.53c-0.126-0.01-0.253-0.02-0.378-0.028c0.024-0.29,0.048-0.58,0.072-0.87
		c-0.124-0.063-0.245-0.132-0.361-0.207c-0.03,0.349-0.059,0.698-0.089,1.049c-0.305-0.024-0.61-0.046-0.915-0.069
		c0.083,0.258,0.201,0.532,0.373,0.844c-1.142-0.282-2.092-0.647-2.941-1.038c-0.347-0.026-0.694-0.052-1.041-0.079
		c0.559,0.806,1.168,1.087,1.734,1.924c-0.418,0.456-0.659,0.656-0.849,0.964c0.506-0.405,0.893-0.487,1.875-0.788
		c0.26,0.232,0.416,0.347,0.522,0.43c0.222-0.15,0.447-0.287,0.669-0.408c0.511-0.563,0.376-0.511,1.164-0.92
		c0.638-0.071,1.276-0.142,1.915-0.214c-0.238,0.732-0.476,1.464-0.715,2.195h-0.841c0.101-0.285,0.203-0.569,0.304-0.854
		c-1.3,0.527-0.257,0.294-1.725-0.101c0.087,0.203,0.175,0.405,0.261,0.608c0.202,0.115,0.403,0.23,0.604,0.346h-5.198
		c-0.038-0.145-0.076-0.291-0.114-0.436c-0.215,0.129-0.497,0.221-0.889,0.313c-0.015,0.041-0.029,0.082-0.044,0.123h-6.166
		c-0.301-0.191-0.605-0.328-0.939-0.509c-0.824-0.176-1.649-0.353-2.474-0.527c0.643-1.393,0.767-0.568,2.035-1.641
		c-0.637,0.072-1.276,0.143-1.914,0.215c1.034-1.687,0.795-1.294,2.759-1.228c-0.568-0.436-0.992-0.656-1.309-0.817h6.194
		c-0.389,1.284-0.522,0.842-1.58,2.143c0.095,0.367,0.191,0.732,0.285,1.099c0.21-0.119,0.394-0.237,0.559-0.358
		c-0.015-0.02-0.03-0.041-0.046-0.061c0.146-0.227,0.291-0.457,0.437-0.685c0.148-0.034,0.296-0.069,0.443-0.103
		c0.271-0.393,0.487-0.87,0.734-1.504c1.618,0.92,0.007,0.827,0.867,1.753c0.174-0.744,0.388-1.137,0.854-1.705
		c-0.373-0.199-0.735-0.393-1.098-0.579h5.529c0.022,0.007,0.043,0.015,0.066,0.022c-0.007-0.007-0.013-0.015-0.02-0.022h4.502
		c0.019,0.056,0.034,0.1,0.056,0.168c-0.053,0.02-0.106,0.041-0.159,0.06c0.38,0.295,0.826,0.585,1.502,0.857
		c-0.031-0.362-0.065-0.724-0.099-1.085h2.505c0.204,0.085,0.43,0.167,0.702,0.244C58.653,2,58.554,3.292,58.268,4.525"/>
	<path clip-path="url(#SVGID_2_)" fill="#696158" d="M35.454,0.637c-0.568,0.557-0.91,0.566-1.597,0.957
		c0.366,0.147,0.734,0.293,1.101,0.441c-0.146,0.228-0.292,0.457-0.437,0.685c-2.452,0.117-3.24-0.358-5.202,0.27
		c0.175,0.115,0.278,0.3,0.328,0.535c0.453,0.122,0.907,0.243,1.36,0.366c-0.221-0.376-0.443-0.752-0.664-1.128
		c0.503,0.038,1.005,0.076,1.508,0.114c0.308,0.229,0.617,0.46,0.925,0.691c0.279,0.021,0.559,0.042,0.838,0.063
		c0.282-0.21,0.579-0.399,0.877-0.554c-0.012,0.617-0.114,1.069-0.233,1.45h-1.62c0.231-0.26,0.491-0.513,0.781-0.746
		c-0.402,0.154-0.805,0.309-1.207,0.463c0.003-0.039,0.006-0.076,0.01-0.115c-0.234,0.143-0.433,0.265-0.617,0.398h-5.587
		c0.001-0.011,0.002-0.022,0.003-0.034c-0.472-0.034-0.942-0.069-1.412-0.106c0.03-0.356,0.06-0.713,0.091-1.069
		c0.282,0.021,0.565,0.043,0.849,0.065c-0.037-0.064-0.09-0.152-0.17-0.276c0.252,0.021,0.503,0.039,0.754,0.059
		c-0.007,0.086-0.015,0.174-0.022,0.26c0.032,0.002,0.065,0.005,0.097,0.007c-0.02,0.237-0.04,0.475-0.06,0.713
		c0.576-0.495,0.649-0.622,1.225-0.706c0.073-0.623,0.378-1.064,1.195-1.426c-0.187-0.442-0.195-0.8-0.307-1.558
		c0.25,0.019,0.503,0.037,0.754,0.056c0.099-0.057,0.182-0.107,0.251-0.151c-0.033-0.081-0.072-0.178-0.117-0.296
		c0.502,0.039,1.005,0.077,1.508,0.114c-0.052,0.146-0.104,0.293-0.156,0.44c0.008,0.002,0.015,0.005,0.022,0.007
		c0.139-0.232,0.285-0.426,0.435-0.605h0.755c-0.01,0.111-0.02,0.222-0.028,0.334C32.942,0.449,34.198,0.542,35.454,0.637
		 M28.756,2.385c-0.075,0.167-0.15,0.335-0.225,0.503C28.75,2.852,28.93,2.854,29.08,2.89C28.947,2.697,28.841,2.532,28.756,2.385"
		/>
	<path clip-path="url(#SVGID_2_)" fill="#696158" d="M19.118,0.839c-0.03,0.357-0.06,0.714-0.09,1.071
		c-0.251-0.019-0.503-0.038-0.754-0.056C18.851,0.826,18.293,1.424,19.118,0.839"/>
	<path clip-path="url(#SVGID_2_)" fill="#696158" d="M21.608,2.823c0.493,0.156,0.986,0.313,1.478,0.469
		c-0.287,0.622-0.46,0.978-0.689,1.234h-2.062C20.449,3.853,20.723,3.327,21.608,2.823"/>
	<path clip-path="url(#SVGID_2_)" fill="#696158" d="M20.219,1.281c0.63,0.048,1.258,0.096,1.886,0.144
		c-0.282,0.337-0.562,0.674-0.845,1.012C20.593,1.887,20.669,2.053,20.219,1.281"/>
	<path clip-path="url(#SVGID_2_)" fill="#696158" d="M24.287,0.018h0.298c-0.032,0.05-0.064,0.1-0.096,0.151
		C24.421,0.118,24.354,0.068,24.287,0.018"/>
	<path clip-path="url(#SVGID_2_)" fill="#696158" d="M15.618,0.018h1.237c-0.334,0.149-0.783,0.247-1.508,0.537
		C15.51,0.265,15.579,0.112,15.618,0.018"/>
	<path clip-path="url(#SVGID_2_)" fill="#696158" d="M13.758,4.525h-0.304c-0.728-0.393-0.862-0.403-1.366-1.346
		c0.378,0.029,0.756,0.057,1.132,0.086C13.399,3.687,13.579,4.105,13.758,4.525"/>
	<path clip-path="url(#SVGID_2_)" fill="#696158" d="M13.991,0.018c0.336,0.251,0.605,0.485,0.918,1.223
		c0.252,0.018,0.503,0.037,0.755,0.056c-0.053,0.084-0.107,0.169-0.161,0.252c-0.064,0.87-0.129,1.74-0.192,2.609
		c0.952,0.131,1.7,0.218,2.282,0.367h-3.499c0.073-0.558,0.179-1.17,0.315-1.713c-0.135,0.051-0.27,0.102-0.405,0.153
		c-0.326-0.621-0.654-1.244-0.981-1.867c0.019-0.238,0.042-0.475,0.06-0.713c-0.164,0.466-0.329,0.931-0.497,1.398
		c-0.261,0.1-0.523,0.199-0.784,0.3c0.02-0.239,0.04-0.476,0.06-0.714c-0.193-0.451-0.385-0.9-0.578-1.351H13.991z"/>
	<path clip-path="url(#SVGID_2_)" fill="#696158" d="M10.761,0.926C9.904,0.625,9.048,0.322,8.192,0.019h2.38
		C10.645,0.28,10.71,0.574,10.761,0.926"/>
	<path clip-path="url(#SVGID_2_)" fill="#696158" d="M25.197,1.917C25.73,1.6,26.263,1.28,26.796,0.962
		c-0.166,0.465-0.333,0.931-0.498,1.399C25.931,2.213,25.563,2.065,25.197,1.917"/>
	<path clip-path="url(#SVGID_2_)" fill="#696158" d="M27.49,1.732c-0.272,0.219-0.542,0.436-0.815,0.655
		C27.262,1.75,26.724,2.174,27.49,1.732"/>
	<path clip-path="url(#SVGID_2_)" fill="#696158" d="M22.546,2.456c-0.112-0.024-0.224-0.048-0.336-0.072
		c-0.021,0.02-0.03,0.03-0.049,0.047c-0.318-0.02-0.633-0.039-0.942-0.057c0.137-0.475,0.068-0.575-0.367-0.574
		c0.099-0.409,0.225-0.815,0.388-1.227c0.715-0.077,1.46-0.153,2.218-0.227c0.363,0.115,0.727,0.229,1.09,0.343
		c-0.004-0.038-0.007-0.078-0.011-0.116c0.029,0.067,0.057,0.134,0.086,0.201c0.084-0.188,0.168-0.376,0.253-0.564
		c0.4-0.038,0.798-0.076,1.192-0.114c-0.289,0.63-0.438,1.54-0.484,2.582C24.581,2.594,23.55,2.521,22.546,2.456"/>
	<path clip-path="url(#SVGID_2_)" fill="#696158" d="M28.003,1.024c0.393,0.03,0.787,0.06,1.18,0.089
		c-0.087,0.128-0.174,0.242-0.26,0.34c-0.371-0.028-0.743-0.056-1.113-0.084C27.886,1.252,27.948,1.138,28.003,1.024"/>
	<path clip-path="url(#SVGID_2_)" fill="#696158" d="M29.352,3.091c-0.126-0.019-0.253-0.037-0.384-0.055
		c0.039-0.043,0.075-0.084,0.123-0.136c-1.704-0.419-0.541-0.688-1.886-0.142c0.01-0.029,0.02-0.057,0.031-0.086
		c0.774-0.52,1.239-0.708,1.687-1.219c0.096,0.007,0.192,0.014,0.288,0.021c0.365,1.128,0.215,0.844,0.8,1.33
		c-0.328-0.088-0.656-0.176-0.984-0.265C29.135,2.724,29.244,2.907,29.352,3.091"/>
	<path clip-path="url(#SVGID_2_)" fill="#696158" d="M30.011,2.804c0.143,0.038,0.286,0.077,0.429,0.115
		c-0.072,0.022-0.137,0.041-0.217,0.066C30.14,2.911,30.075,2.857,30.011,2.804"/>
	<path clip-path="url(#SVGID_2_)" fill="#696158" d="M30.44,2.919c0.15-0.045,0.287-0.087,0.41-0.125
		c0.011,0.081,0.022,0.163,0.034,0.244C30.736,2.999,30.588,2.959,30.44,2.919"/>
	<path clip-path="url(#SVGID_2_)" fill="#696158" d="M26.393,2.75c-0.262-0.024-0.526-0.048-0.794-0.07
		c0.176-1.228,0.706-1.719,0.592-2.506c0.059-0.046,0.098-0.065,0.151-0.104c0.178-0.017,0.348-0.034,0.524-0.051h0.931
		c0.004,0,0.008-0.001,0.012,0h0.319c0.118,0.282,0.055,0.633-0.125,1.005c-0.341-0.026-0.682-0.051-1.023-0.077
		C26.784,1.548,26.587,2.148,26.393,2.75"/>
	<path clip-path="url(#SVGID_2_)" fill="#696158" d="M17.459,1.306c0.046,0.356,0.058,0.62,0.054,0.85
		C16.11,2.065,15.346,1.99,15.797,1.9c-0.253-0.398,0.932-0.716,2.778-0.993c0.172,0.247,0.551,0.189,0.831,0.545
		C18.757,1.404,18.108,1.354,17.459,1.306"/>
	<path clip-path="url(#SVGID_2_)" fill="#696158" d="M32.204,1.091c0.116,0.08,0.25,0.168,0.432,0.283
		c-0.004,0.045-0.008,0.09-0.012,0.136c-0.278-0.066-0.557-0.132-0.836-0.198c-0.031,0.385-0.065,0.77-0.097,1.155
		c-0.235,0.127-0.494,0.22-0.841,0.327c-0.129-0.925-0.258-1.851-0.387-2.776h0.888c0.224,0.397,0.318,0.597,0.486,0.774
		c-0.319,0.145-0.6,0.299-0.801,0.464C31.477,1.199,31.855,1.143,32.204,1.091"/>
	<path clip-path="url(#SVGID_2_)" fill="#696158" d="M32.624,1.51c0.466,0.11,0.932,0.221,1.398,0.33
		c-0.01,0.119-0.02,0.238-0.03,0.357c-0.935,0.789-0.663,0.749-2.355,0.899c0.018-0.209,0.035-0.419,0.053-0.629
		c0.285-0.154,0.546-0.363,0.916-0.737C32.612,1.657,32.618,1.583,32.624,1.51"/>
	<path clip-path="url(#SVGID_2_)" fill="#696158" d="M8.25,0.018C8.268,0.215,8.285,0.413,8.303,0.61
		C7.402,1.279,7.42,1.109,6.921,2.156c-0.128,0.009-0.252,0.02-0.377,0.03C5.528,1.544,5.462,1.295,4.847,0.167
		c0.042-0.059,0.068-0.1,0.102-0.149H8.25z"/>
	<path clip-path="url(#SVGID_2_)" fill="#696158" d="M32.204,1.091c-0.164-0.113-0.28-0.207-0.367-0.299
		c0.634-0.288,1.413-0.54,2.044-0.774h0.822c0.17,0.398,0.341,0.795,0.51,1.194C34.299,0.806,33.541,0.897,32.204,1.091"/>
	<path clip-path="url(#SVGID_2_)" fill="#696158" d="M2.65,5.366c0.724-1.725,0.872-0.013,1.789-1.219
		c0.242-0.14,0.482-0.276,0.723-0.416c-0.377,0.029-0.755,0.06-1.131,0.09C3.989,3.346,3.947,2.869,3.906,2.394
		c1.967,0.226,2.139,0.237,2.827,1.93c1.733-1.39,1.835-1.661,3.926-2.823c0.126-0.009,0.253-0.02,0.378-0.029
		c0.009,0.119,0.022,0.237,0.031,0.356C9.89,3.463,9.429,3.543,9.4,4.525H4.826"/>
	<path clip-path="url(#SVGID_2_)" fill="#696158" d="M8.629,0.018h0.377c-0.12,0.069-0.239,0.138-0.359,0.206
		C8.641,0.155,8.635,0.087,8.629,0.018"/>
	<path clip-path="url(#SVGID_2_)" fill="#696158" d="M8.743,1.293C8.721,1.056,8.701,0.819,8.681,0.581
		c0.25-0.02,0.501-0.04,0.754-0.06C8.965,1.24,9.424,0.739,8.743,1.293"/>
	<path clip-path="url(#SVGID_2_)" fill="#696158" d="M19.484,4.302c-0.304,0.001-0.596,0.003-0.882,0.004
		c0.012-0.014,0.021-0.023,0.033-0.038c-0.096-0.366-0.191-0.73-0.287-1.098c-0.62,0.354-1.023,0.698-1.345,1.145
		c-0.173,0.001-0.335,0.002-0.491,0.003c0.581-1.084,0.984-1.229,1.001-2.162c0.61,0.039,1.334,0.08,2.141,0.126
		C19.597,2.955,19.541,3.629,19.484,4.302"/>
	<path clip-path="url(#SVGID_2_)" fill="#696158" d="M50.071,0.539c-0.397,0.211-0.795,0.419-1.191,0.628
		c0.019-0.238,0.04-0.476,0.062-0.713C49.318,0.483,49.695,0.512,50.071,0.539"/>
	<path clip-path="url(#SVGID_2_)" fill="#696158" d="M48.232,4.347c-0.005,0.06-0.01,0.119-0.015,0.179h-0.452
		C47.921,4.466,48.077,4.407,48.232,4.347"/>
	<path clip-path="url(#SVGID_2_)" fill="#696158" d="M60.798,3.86c0.245-0.075,0.361-0.33,0.379,0.028
		c0.375,0.029,0.753,0.057,1.131,0.084c-0.178,0.237-0.306,0.41-0.421,0.553h-1.84C60.088,4.387,60.222,4.289,60.798,3.86"/>
	<path clip-path="url(#SVGID_2_)" fill="#696158" d="M44.384,0.47c0.186-0.151,0.373-0.301,0.559-0.451h0.074
		C44.741,0.347,45.045,0.088,44.384,0.47"/>
	<path clip-path="url(#SVGID_2_)" fill="#696158" d="M34.655,3.324c-0.251-0.02-0.501-0.038-0.754-0.058
		c0.021-0.237,0.041-0.474,0.06-0.712C34.634,3.107,34.188,2.599,34.655,3.324"/>
	<path clip-path="url(#SVGID_2_)" fill="#696158" d="M24.698,4.365c-0.038,0.063-0.068,0.109-0.099,0.16h-1.323
		C23.75,4.473,24.224,4.42,24.698,4.365"/>
	<path clip-path="url(#SVGID_2_)" fill="#696158" d="M39.409,4.525h-1.081c0.148-0.178,0.297-0.354,0.446-0.534
		C39.139,4.294,39.281,4.383,39.409,4.525"/>
	<path clip-path="url(#SVGID_2_)" fill="#696158" d="M41.077,4.525h-0.071c0-0.002,0-0.003,0-0.005
		C41.03,4.522,41.053,4.523,41.077,4.525"/>
	<path clip-path="url(#SVGID_2_)" fill="#696158" d="M46.03,3.465c0.186,0.353,0.371,0.707,0.557,1.061h-1.829
		c0.163-0.254,0.325-0.507,0.487-0.761C45.507,3.664,45.768,3.563,46.03,3.465"/>
	<path clip-path="url(#SVGID_2_)" fill="#696158" d="M47.945,3.25c-0.377-0.029-0.754-0.057-1.132-0.085
		c-0.21-0.496-0.421-0.989-0.633-1.484C47.279,2.321,47.361,2.155,47.945,3.25"/>
	<path clip-path="url(#SVGID_2_)" fill="#696158" d="M14.833,4.341c-0.028-0.002,0.012-0.004,0.097-0.006
		c-0.001,0.003-0.002,0.007-0.004,0.01c0.207,0.015,0.415,0.031,0.622,0.046c0.027,0.05,0.038,0.092,0.05,0.135h-2.234
		c0.45-1.394,0.612-2.813,0.525-4.508h0.782c0.665,0.993,0.812,2.523,0.463,3.747c-0.071-0.165-0.141-0.33-0.212-0.495
		C14.895,3.627,14.863,3.983,14.833,4.341"/>
	<path clip-path="url(#SVGID_2_)" fill="#696158" d="M18.553,0.018h1.113c-0.077,0.12-0.153,0.24-0.23,0.361
		c0.378,0.027,0.755,0.056,1.13,0.084c-0.026-0.148-0.052-0.296-0.078-0.445h0.995c-0.09,0.188-0.17,0.372-0.242,0.555
		c-0.971,0.106-1.877,0.216-2.665,0.334C18.476,0.765,18.454,0.506,18.553,0.018"/>
	<path clip-path="url(#SVGID_2_)" fill="#696158" d="M27.869,3.885C27.23,3.956,26.592,4.028,25.954,4.1
		c0.043-0.135,0.087-0.269,0.131-0.402c0.822-0.011,1.455,0.034,2.027,0.06C28.041,3.795,27.962,3.836,27.869,3.885"/>
	<path clip-path="url(#SVGID_2_)" fill="#696158" d="M25.572,2.956c-0.003,0.126-0.004,0.254-0.005,0.383
		c-0.008,0.004-0.015,0.01-0.023,0.014C25.546,3.209,25.56,3.085,25.572,2.956"/>
	<path clip-path="url(#SVGID_2_)" fill="#696158" d="M26.366,2.831c-0.094,0.289-0.188,0.578-0.282,0.867
		c-0.166,0.002-0.329,0.003-0.512,0.012c-0.003-0.124-0.005-0.248-0.005-0.37C25.84,3.196,26.107,3.021,26.366,2.831"/>
	<path clip-path="url(#SVGID_2_)" fill="#696158" d="M25.572,3.709c0.002,0.121,0,0.238,0.004,0.362
		c-0.093-0.007-0.186-0.015-0.279-0.021c0.072-0.114,0.144-0.227,0.216-0.34C25.535,3.709,25.551,3.71,25.572,3.709"/>
	<path clip-path="url(#SVGID_2_)" fill="#696158" d="M27.809,1.368c-0.07,0.107-0.138,0.214-0.223,0.322
		c0.039-0.11,0.078-0.22,0.117-0.33C27.738,1.363,27.774,1.365,27.809,1.368"/>
	<path clip-path="url(#SVGID_2_)" fill="#696158" d="M19.407,1.453c0.105,0.008,0.21,0.016,0.315,0.024
		c-0.01,0.117-0.02,0.234-0.03,0.351c-0.033,0-0.056,0.002-0.091,0.001C19.546,1.666,19.479,1.546,19.407,1.453"/>
	<path clip-path="url(#SVGID_2_)" fill="#696158" d="M19.654,2.282c0.013-0.151,0.026-0.303,0.038-0.454
		C20.229,1.825,20.6,1.8,20.852,1.8c-0.043,0.179-0.083,0.362-0.119,0.545C20.363,2.323,20,2.302,19.654,2.282"/>
	<path clip-path="url(#SVGID_2_)" fill="#696158" d="M25.297,4.05C25.249,4.126,25.2,4.2,25.152,4.276
		c-0.653,0.003-1.316,0.006-1.977,0.009c0.294-0.197,0.511-0.282,0.687-0.344C24.341,3.978,24.818,4.014,25.297,4.05"/>
	<path clip-path="url(#SVGID_2_)" fill="#696158" d="M29.069,4.112C29.044,4.063,29.028,4.02,29,3.969
		C29.184,4.015,29.197,4.062,29.069,4.112"/>
	<path clip-path="url(#SVGID_2_)" fill="#696158" d="M31.5,4.525h-2.247c-0.036-0.088-0.068-0.174-0.113-0.268
		c0.903-0.005,1.675-0.01,2.241-0.015C31.431,4.343,31.466,4.434,31.5,4.525"/>
	<path clip-path="url(#SVGID_2_)" fill="#696158" d="M29.14,4.258c-0.261,0.001-0.535,0.003-0.816,0.004
		c0.361-0.051,0.621-0.102,0.745-0.149C29.095,4.162,29.117,4.21,29.14,4.258"/>
	<path clip-path="url(#SVGID_2_)" fill="#696158" d="M26.393,2.75c0.025,0.002,0.049,0.005,0.074,0.007
		c-0.033,0.025-0.067,0.049-0.1,0.074C26.375,2.804,26.383,2.776,26.393,2.75"/>
	<path clip-path="url(#SVGID_2_)" fill="#696158" d="M27.212,2.83c-0.245-0.025-0.493-0.049-0.746-0.073
		c0.427-0.324,0.819-0.69,1.119-1.066c-0.117,0.327-0.233,0.654-0.35,0.982c-0.042,0.029-0.079,0.051-0.124,0.082
		C27.146,2.779,27.178,2.804,27.212,2.83"/>
	<path clip-path="url(#SVGID_2_)" fill="#696158" d="M28.111,3.758c0.143-0.076,0.242-0.133,0.321-0.187
		c0.42,0.032,0.839,0.063,1.259,0.096c-0.113-0.192-0.226-0.383-0.339-0.575c1.909,0.283,3.192,0.647,3.042,1.133
		c0.078,0.006-0.308,0.013-1.013,0.019c-0.116-0.23-0.277-0.49-0.528-0.848C29.716,3.778,28.968,3.797,28.111,3.758"/>
	<path clip-path="url(#SVGID_2_)" fill="#696158" d="M28.432,3.571c-0.083-0.006-0.165-0.012-0.248-0.019
		c-0.323-0.24-0.647-0.482-0.971-0.723c0.618,0.063,1.208,0.132,1.755,0.206C28.702,3.333,28.623,3.443,28.432,3.571"/>
	<path clip-path="url(#SVGID_2_)" fill="#696158" d="M25.584,2.678c0.005,0,0.01,0.001,0.015,0.001
		c-0.012,0.086-0.019,0.183-0.027,0.277C25.574,2.861,25.58,2.771,25.584,2.678"/>
	<path clip-path="url(#SVGID_2_)" fill="#696158" d="M29.123,0.018h0.59c-0.021,0.257-0.043,0.515-0.065,0.772
		c0.24,0.137,0.483,0.276,0.725,0.413c-0.397-0.03-0.794-0.06-1.19-0.09c0.128-0.189,0.26-0.403,0.403-0.684
		C29.431,0.292,29.277,0.155,29.123,0.018"/>
	<path clip-path="url(#SVGID_2_)" fill="#696158" d="M26.111,0.018h0.309c-0.028,0.019-0.05,0.031-0.079,0.052
		c-0.091,0.009-0.182,0.017-0.274,0.026C26.082,0.067,26.098,0.046,26.111,0.018"/>
	<path clip-path="url(#SVGID_2_)" fill="#696158" d="M22.415,0.018h2.547c-0.029,0.064-0.057,0.128-0.086,0.192
		c-0.473,0.045-0.947,0.09-1.418,0.136C23.111,0.237,22.763,0.127,22.415,0.018"/>
	<path clip-path="url(#SVGID_2_)" fill="#696158" d="M10.911,0.046c-0.06-0.009-0.12-0.019-0.18-0.028h0.162
		C10.899,0.027,10.905,0.037,10.911,0.046"/>
	<path clip-path="url(#SVGID_2_)" fill="#696158" d="M19.659,4.525h-0.194c0.007-0.075,0.013-0.148,0.019-0.224
		c0.051,0,0.104,0,0.155-0.001C19.646,4.376,19.652,4.45,19.659,4.525"/>
	<path clip-path="url(#SVGID_2_)" fill="#696158" d="M18.414,4.525h-1.542c0.044-0.069,0.084-0.146,0.131-0.211
		c0.478-0.003,1.016-0.006,1.6-0.009C18.533,4.39,18.475,4.455,18.414,4.525"/>
	<path clip-path="url(#SVGID_2_)" fill="#696158" d="M22.857,4.525h-0.356c0.007-0.079,0.014-0.158,0.021-0.237
		c0.217-0.001,0.434-0.002,0.653-0.003C23.079,4.35,22.97,4.435,22.857,4.525"/>
	<path clip-path="url(#SVGID_2_)" fill="#696158" d="M15.134,3.766c0.035,0.082,0.07,0.165,0.106,0.247
		c0.126,0.119,0.21,0.222,0.27,0.313c-0.274,0.003-0.469,0.005-0.58,0.008C15.013,4.156,15.078,3.963,15.134,3.766"/>
	<path clip-path="url(#SVGID_2_)" fill="#696158" d="M15.549,4.391c-0.011-0.021-0.024-0.043-0.039-0.064
		c0.267-0.003,0.608-0.005,1.002-0.008c-0.026,0.049-0.05,0.086-0.077,0.139C16.139,4.437,15.844,4.413,15.549,4.391"/>
	<path clip-path="url(#SVGID_2_)" fill="#696158" d="M25.864,4.525h-0.462c-0.109-0.043-0.217-0.087-0.326-0.13
		c0.025-0.04,0.05-0.079,0.076-0.119c1.117-0.005,2.198-0.01,3.171-0.014C27.738,4.346,26.872,4.435,25.864,4.525"/>
	<path clip-path="url(#SVGID_2_)" fill="#696158" d="M20.484,3.851c0.079-0.532,0.155-1.026,0.249-1.506
		c0.161,0.01,0.321,0.019,0.486,0.029c-0.048,0.167-0.111,0.364-0.201,0.639c1.131-0.366,0.501,0.017,1.143-0.581
		c0.128,0.008,0.256,0.016,0.385,0.025c0.757,0.162,1.515,0.323,2.272,0.484c-0.384,0.834-0.587,0.874-0.956,1.001
		c-0.434-0.033-0.869-0.065-1.302-0.098c-0.014,0.148-0.026,0.297-0.038,0.444c-0.998,0.004-1.976,0.008-2.883,0.014
		c-0.018-0.213-0.036-0.424-0.056-0.635C20.606,3.432,20.197,3.305,20.484,3.851"/>
	<path clip-path="url(#SVGID_2_)" fill="#696158" d="M16.633,0.018h0.742c-0.159,0.044-0.345,0.097-0.581,0.16
		C16.73,0.114,16.69,0.074,16.633,0.018"/>
	<path clip-path="url(#SVGID_2_)" fill="#696158" d="M0.059,3.058C0.095,3.055,0.13,3.052,0.167,3.049
		c1.152-1.329,0.695-1.05-0.088-2.276c-0.007,0.006-0.013,0.014-0.02,0.021V0.018h0.977C0.883,0.12,0.725,0.213,0.582,0.327
		C1.025,0.188,1.405,0.109,1.77,0.018h1.737"/>
	<path clip-path="url(#SVGID_2_)" fill="#696158" d="M55.382,0.582c1.025-0.164,2.052-0.324,3.078-0.486
		c-0.021,0.237-0.041,0.474-0.062,0.714c0.213,0.493,0.422,0.988,0.635,1.483c-0.523,0.199-1.046,0.398-1.568,0.599
		c0.424,1.719-0.367,0.888,1.388,1.539c-0.044,0.037-0.079,0.062-0.12,0.095h-7.58c-0.231-0.182-0.539-0.399-0.976-0.75
		c0.041-0.474,0.081-0.949,0.121-1.425c0.841,0.542,1.68,1.084,2.521,1.625c-0.978-1.099-1.37-1.177-1.645-2.994
		c1.192,0.238,1.515-0.251,2.413-0.963h1.76C55.359,0.186,55.371,0.365,55.382,0.582"/>
	<path clip-path="url(#SVGID_2_)" fill="#696158" d="M41.938,0.018c0.783,0.659,1.869,0.905,3.17,0.864
		c-0.04,0.476-0.08,0.95-0.12,1.427c-2.469-0.352-3.71-0.34-4.028-1.739c-0.377-0.03-0.754-0.057-1.13-0.086
		c-0.135,1.452,0.019,2.312-1.403,3.123c-0.493-0.156-0.987-0.313-1.478-0.469c0.634-1.373,0.707-1.463,2.065-1.998
		c-0.221-0.374-0.441-0.748-0.66-1.122H41.938z"/>
	<path clip-path="url(#SVGID_2_)" fill="#696158" d="M37.445,1.739c-0.251-0.017-0.502-0.036-0.754-0.057
		C37.389,1.409,36.816,1.341,37.445,1.739"/>
	<path clip-path="url(#SVGID_2_)" fill="#696158" d="M47.055,0.313c0.256-0.098,0.512-0.196,0.768-0.294h0.775
		c-0.011,0.136-0.023,0.271-0.034,0.407C48.06,0.387,47.558,0.349,47.055,0.313"/>
	<path clip-path="url(#SVGID_2_)" fill="#696158" d="M51.203,0.625c0.122-0.262,0.229-0.448,0.328-0.606h1.036
		C52.112,0.221,51.657,0.422,51.203,0.625"/>
	<path clip-path="url(#SVGID_2_)" fill="#696158" d="M0.059,5.268c0.4-0.292,0.742-0.521,1.117-0.723
		C1.118,4.409,1.06,4.273,1.001,4.137c0.523-0.197,1.046-0.398,1.568-0.599C2.146,1.819,2.937,2.65,1.182,1.999
		C1.333,1.873,1.468,1.77,1.587,1.682C1.661,1.51,1.732,1.336,1.806,1.164C1.889,1.23,1.973,1.296,2.055,1.362
		C2.462,1.095,2.611,0.997,2.84,0.331c1.362,0.34,2.727,0.683,4.088,1.025c0.107-0.191,0.213-0.381,0.319-0.572
		C7.192,0.771,7.139,0.759,7.083,0.746C7.248,0.564,7.411,0.382,7.572,0.2C7.606,0.139,7.64,0.079,7.673,0.018h0.507
		c0.108,1.746,0.198,1.45,1.676,2.636c-0.04,0.474-0.08,0.949-0.12,1.426C9.541,3.953,9.345,3.827,9.148,3.701
		c0.038,0.042,0.073,0.077,0.105,0.104C8.813,3.834,8.493,3.751,8.25,3.607c0.173,0.241,0.304,0.526,0.416,0.918H4.827"/>
	<path clip-path="url(#SVGID_2_)" fill="#696158" d="M7.459,2.611C7.378,2.559,7.297,2.506,7.217,2.454
		c0.14,0.159,0.269,0.296,0.387,0.42C7.553,2.784,7.505,2.695,7.459,2.611"/>
	<path clip-path="url(#SVGID_2_)" fill="#696158" d="M0.059,1.425V1.208C0.078,1.205,0.09,1.204,0.109,1.201
		C0.085,1.29,0.071,1.358,0.059,1.425"/>
	<path clip-path="url(#SVGID_2_)" fill="#696158" d="M52.059,1.211c-0.22,0.177-0.438,0.353-0.658,0.53
		c-0.126-0.01-0.252-0.02-0.377-0.028c0.024-0.291,0.048-0.58,0.072-0.87c-0.124-0.063-0.245-0.132-0.361-0.207
		c-0.03,0.349-0.059,0.698-0.089,1.049c-0.305-0.024-0.61-0.046-0.915-0.069c0.083,0.257,0.201,0.532,0.373,0.844
		c-1.142-0.282-2.092-0.647-2.941-1.038c-0.347-0.026-0.694-0.052-1.041-0.079c0.558,0.806,1.168,1.087,1.734,1.924
		c-0.418,0.456-0.66,0.656-0.849,0.964c0.506-0.405,0.893-0.487,1.875-0.788c0.26,0.232,0.416,0.347,0.521,0.43
		c0.223-0.15,0.448-0.287,0.67-0.408c0.511-0.563,0.376-0.511,1.164-0.92c0.638-0.071,1.276-0.142,1.915-0.214
		c-0.238,0.732-0.476,1.464-0.715,2.195h-0.841c0.101-0.285,0.203-0.569,0.304-0.854c-1.3,0.526-0.257,0.294-1.725-0.101
		c0.087,0.203,0.174,0.405,0.261,0.608c0.202,0.115,0.402,0.23,0.604,0.346h-5.198c-0.038-0.145-0.076-0.291-0.114-0.436
		c-0.215,0.129-0.497,0.221-0.889,0.313c-0.015,0.041-0.03,0.082-0.044,0.123h-6.166c-0.302-0.191-0.605-0.328-0.939-0.509
		c-0.825-0.176-1.649-0.353-2.474-0.527c0.643-1.393,0.767-0.568,2.035-1.641c-0.637,0.072-1.276,0.143-1.914,0.215
		c1.034-1.687,0.795-1.294,2.759-1.228c-0.568-0.436-0.992-0.656-1.309-0.817h6.194c-0.39,1.284-0.523,0.842-1.58,2.143
		c0.095,0.367,0.191,0.732,0.285,1.099c0.21-0.12,0.394-0.237,0.559-0.358c-0.015-0.02-0.03-0.041-0.046-0.061
		c0.146-0.227,0.291-0.457,0.437-0.685c0.148-0.034,0.296-0.069,0.443-0.103c0.271-0.393,0.487-0.87,0.733-1.504
		c1.619,0.92,0.008,0.827,0.868,1.752c0.174-0.744,0.388-1.136,0.853-1.704c-0.372-0.199-0.734-0.394-1.097-0.579h5.529
		c0.022,0.007,0.043,0.015,0.065,0.022c-0.006-0.007-0.012-0.015-0.019-0.022"/>
	<path clip-path="url(#SVGID_2_)" fill="#696158" d="M53.45,4.525c0.072-0.662,0.107-1.382,0.078-2.166"/>
	<path clip-path="url(#SVGID_2_)" fill="#696158" d="M35.454,0.637c-0.568,0.557-0.91,0.566-1.597,0.957
		c0.366,0.147,0.734,0.293,1.101,0.441c-0.146,0.228-0.292,0.457-0.437,0.685c-2.452,0.117-3.24-0.358-5.202,0.27
		c0.175,0.115,0.278,0.3,0.328,0.535c0.453,0.122,0.907,0.243,1.36,0.366c-0.221-0.376-0.443-0.752-0.664-1.128
		c0.503,0.038,1.005,0.076,1.508,0.114c0.308,0.229,0.617,0.46,0.925,0.691c0.279,0.021,0.559,0.042,0.838,0.063
		c0.282-0.21,0.579-0.399,0.877-0.554c-0.012,0.617-0.114,1.069-0.233,1.45h-1.62c0.231-0.26,0.491-0.513,0.781-0.746
		c-0.402,0.154-0.805,0.309-1.207,0.463c0.003-0.039,0.006-0.076,0.01-0.115c-0.234,0.143-0.433,0.265-0.617,0.398h-5.587
		c0.001-0.011,0.002-0.022,0.003-0.034c-0.472-0.034-0.942-0.069-1.412-0.106c0.03-0.356,0.06-0.713,0.091-1.069
		c0.282,0.021,0.565,0.043,0.849,0.065c-0.037-0.064-0.09-0.152-0.17-0.276c0.252,0.021,0.503,0.039,0.754,0.059
		c-0.007,0.086-0.015,0.174-0.022,0.26c0.032,0.002,0.065,0.005,0.097,0.007c-0.02,0.237-0.04,0.475-0.06,0.713
		c0.576-0.495,0.649-0.622,1.225-0.706c0.073-0.623,0.378-1.064,1.195-1.426c-0.187-0.442-0.195-0.8-0.307-1.558
		c0.25,0.019,0.503,0.037,0.754,0.056c0.099-0.057,0.182-0.107,0.251-0.151c-0.033-0.081-0.072-0.178-0.117-0.296
		c0.502,0.039,1.005,0.077,1.508,0.114c-0.052,0.146-0.104,0.293-0.156,0.44c0.008,0.002,0.015,0.005,0.022,0.007
		c0.139-0.232,0.285-0.426,0.435-0.605h0.755c-0.01,0.111-0.02,0.222-0.028,0.334C32.942,0.449,34.198,0.542,35.454,0.637
		 M28.756,2.385c-0.075,0.167-0.15,0.335-0.225,0.503C28.75,2.852,28.93,2.854,29.08,2.89C28.947,2.697,28.841,2.532,28.756,2.385"
		/>
	<path clip-path="url(#SVGID_2_)" fill="#696158" d="M19.118,0.839c-0.03,0.357-0.06,0.714-0.09,1.071
		c-0.251-0.019-0.503-0.038-0.754-0.056C18.851,0.826,18.293,1.424,19.118,0.839"/>
	<path clip-path="url(#SVGID_2_)" fill="#696158" d="M21.608,2.823c0.493,0.156,0.986,0.313,1.478,0.469
		c-0.287,0.622-0.46,0.978-0.689,1.234h-2.062C20.449,3.853,20.723,3.327,21.608,2.823"/>
	<path clip-path="url(#SVGID_2_)" fill="#696158" d="M20.219,1.281c0.63,0.048,1.258,0.096,1.886,0.144
		c-0.282,0.337-0.562,0.674-0.845,1.012C20.593,1.887,20.669,2.053,20.219,1.281"/>
	<path clip-path="url(#SVGID_2_)" fill="#696158" d="M24.287,0.018h0.298c-0.032,0.05-0.064,0.1-0.096,0.151
		C24.421,0.118,24.354,0.068,24.287,0.018"/>
	<path clip-path="url(#SVGID_2_)" fill="#696158" d="M15.618,0.018h1.237c-0.334,0.149-0.783,0.247-1.508,0.537
		C15.51,0.265,15.579,0.112,15.618,0.018"/>
	<path clip-path="url(#SVGID_2_)" fill="#696158" d="M13.758,4.525h-0.304c-0.728-0.393-0.862-0.403-1.366-1.346
		c0.378,0.029,0.756,0.057,1.132,0.086C13.399,3.687,13.579,4.105,13.758,4.525"/>
	<path clip-path="url(#SVGID_2_)" fill="#696158" d="M13.991,0.018c0.336,0.251,0.605,0.485,0.918,1.223
		c0.252,0.018,0.503,0.037,0.755,0.056c-0.053,0.084-0.107,0.169-0.161,0.252c-0.064,0.87-0.129,1.74-0.192,2.609
		c0.952,0.131,1.7,0.218,2.282,0.367h-3.499c0.073-0.558,0.179-1.17,0.315-1.713c-0.135,0.051-0.27,0.102-0.405,0.153
		c-0.326-0.621-0.654-1.244-0.981-1.867c0.019-0.238,0.042-0.475,0.06-0.713c-0.164,0.466-0.329,0.931-0.497,1.398
		c-0.261,0.1-0.523,0.199-0.784,0.3c0.02-0.239,0.04-0.476,0.06-0.714c-0.193-0.451-0.385-0.9-0.578-1.351H13.991z"/>
	<path clip-path="url(#SVGID_2_)" fill="#696158" d="M10.761,0.926C9.904,0.625,9.048,0.322,8.192,0.019h2.38
		C10.645,0.28,10.71,0.574,10.761,0.926"/>
	<path clip-path="url(#SVGID_2_)" fill="#696158" d="M25.197,1.917C25.73,1.6,26.263,1.28,26.796,0.962
		c-0.166,0.465-0.333,0.931-0.498,1.399C25.931,2.213,25.563,2.065,25.197,1.917"/>
	<path clip-path="url(#SVGID_2_)" fill="#696158" d="M27.49,1.732c-0.272,0.219-0.542,0.436-0.815,0.655
		C27.262,1.75,26.724,2.174,27.49,1.732"/>
	<path clip-path="url(#SVGID_2_)" fill="#696158" d="M28.264,0.998c1.199,0.552,0.37,0.433,1.842-0.175
		c0.023-0.002,0.046-0.004,0.069-0.005c-0.611,2.645-1.136,2.476,1.576,3.688c0.584-0.628,0.407-0.559,1.225-0.98
		c-0.324-0.624-0.649-1.248-0.973-1.871c1.441-0.626,2.688-0.184,3.079-0.475c0.272-0.217,0.545-0.435,0.817-0.652
		c-1.031,0.05-0.078-0.13-1.162,0.267c0.033-0.129,0.069-0.242,0.104-0.357h-6.292C28.463,0.657,28.371,0.854,28.264,0.998"/>
	<path clip-path="url(#SVGID_2_)" fill="#696158" d="M34.107,3.615c-0.461,0.98-0.63,0.121-0.095,1.068
		c0.158-0.347,0.315-0.693,0.471-1.04C34.358,3.634,34.233,3.623,34.107,3.615"/>
	<path clip-path="url(#SVGID_2_)" fill="#696158" d="M12.303,1.171c0.377,0.031,0.754,0.061,1.13,0.091
		c-0.132-0.28-0.227-0.55-0.338-0.825h-0.904C12.213,0.658,12.24,0.903,12.303,1.171"/>
	<path clip-path="url(#SVGID_2_)" fill="#696158" d="M28.295,0.642c-0.026-0.083-0.049-0.147-0.071-0.205h-2.189
		c-0.001,0.008-0.002,0.017-0.002,0.026C26.788,0.524,27.542,0.581,28.295,0.642"/>
	<path clip-path="url(#SVGID_2_)" fill="#696158" d="M49.785,2.342c-0.114-0.129-0.23-0.259-0.346-0.387
		c-0.502-0.039-1.004-0.079-1.507-0.118c0.345,0.384,0.69,0.772,1.037,1.159c-0.845,0.717-0.57,0.651-1.981,0.919
		c1.091-0.369-1.68,0.359-2.67,0.148c-0.022,0.658-0.053,0.582,0.056,0.881h3.421C47.9,4.791,48,4.608,48.089,4.362
		c0.542,0.194,1.085,0.388,1.628,0.582h0.977c0.043-0.481,0.085-0.961,0.128-1.442C50.357,2.789,50.519,2.886,49.785,2.342"/>
	<path clip-path="url(#SVGID_2_)" fill="#696158" d="M43.84,0.437c0.071,0.072,0.184,0.176,0.385,0.389
		c0.083-0.129,0.166-0.259,0.25-0.389H43.84z"/>
	<path clip-path="url(#SVGID_2_)" fill="#696158" d="M39.26,1.15c-0.443-0.579-0.124-0.019,0.065-0.713
		c-0.767,0.06-1.53,0.117-2.293,0.178c0.312,0.743,0.627,1.485,0.939,2.229C38.552,1.349,38.317,1.949,39.26,1.15"/>
	<path clip-path="url(#SVGID_2_)" fill="#696158" d="M0.331,3.067C1.035,2.85,1.14,2.709,1.421,2.324
		c-0.07-0.078-0.14-0.157-0.21-0.235C1.394,2.02,1.578,1.952,1.76,1.883c0.093-0.113,0.202-0.24,0.335-0.384
		c0.689,1.659-0.19,0.911,1.629,1.312c0.212-0.494,0.423-0.988,0.633-1.482C4.5,1.384,4.645,1.438,4.788,1.493
		c0.214-0.354,0.456-0.678,0.764-1.056h3.366c0.675,1.148,0.281,0.964,1.504,0.793c-0.401,0.624-0.126,0.335-0.47,0.593
		C9.75,2.726,9.55,3.626,9.349,4.527C8.553,3.89,8.41,3.573,7.999,2.625C8.781,2.411,8.96,2.29,9.221,2.12
		C9.078,2.154,8.935,2.188,8.792,2.222C8.79,2.258,8.786,2.294,8.783,2.33C8.669,2.32,8.558,2.312,8.446,2.303
		c-0.316,0.075-0.634,0.15-0.951,0.224C7.479,2.331,7.462,2.135,7.446,1.938c-0.309,0.07-0.575,0.129-0.809,0.186
		C6.48,3.01,6.325,3.895,6.167,4.779c0.768,0.036,1.2,0.072,1.538,0.164H4.768"/>
	<path clip-path="url(#SVGID_2_)" fill="#696158" d="M1.488,0.437h-0.23C1.255,0.455,1.254,0.467,1.25,0.486
		C1.345,0.462,1.417,0.45,1.488,0.437"/>
	<path clip-path="url(#SVGID_2_)" fill="#696158" d="M10.04,0.994c0.401,0.23,0.801,0.461,1.203,0.691
		c0.162,1.045,0.619,2.15,1.115,3.26h2.418c-0.871-0.996-0.824-1.45-2.634-1.333c-0.003-1.058-0.006-2.116-0.009-3.175H9.564
		c0.02,0.011,0.041,0.022,0.061,0.033C9.57,0.563,9.616,0.688,10.04,0.994"/>
	<path clip-path="url(#SVGID_2_)" fill="#696158" d="M41.239,4.537c-0.167,0.122-0.303,0.26-0.416,0.407h2.102
		c-0.542-0.296-0.841-0.632-1.623-1.12C41.281,4.061,41.261,4.301,41.239,4.537"/>
	<path clip-path="url(#SVGID_2_)" fill="#696158" d="M25.593,1.147c0.467,0.718,0.01,0.218,0.691,0.772
		C26.053,1.661,25.824,1.404,25.593,1.147"/>
	<path clip-path="url(#SVGID_2_)" fill="#696158" d="M13.907,2.043c0.105-0.248,0.211-0.493,0.318-0.742
		c-0.367,0.148-0.734,0.295-1.102,0.442C13.384,1.843,13.645,1.944,13.907,2.043"/>
	<path clip-path="url(#SVGID_2_)" fill="#696158" d="M0.158,4.964C0.096,5.004,0.052,5.028,0,5.06"/>
	<path clip-path="url(#SVGID_2_)" fill="#696158" d="M20.063,4.944c-0.636-0.559-0.084-0.261-1.09,0H20.063z"/>
	<path clip-path="url(#SVGID_2_)" fill="#696158" d="M26.268,1.645c0.115,0.128,0.23,0.258,0.346,0.386
		c0.502,0.04,1.004,0.079,1.507,0.118c-0.346-0.384-0.69-0.771-1.036-1.158c0.338-0.287,0.497-0.447,0.657-0.554h-2.507
		c-0.001,0.016-0.002,0.032-0.004,0.047C25.696,1.197,25.534,1.1,26.268,1.645"/>
	<path clip-path="url(#SVGID_2_)" fill="#696158" d="M57.216,3.734c-0.127-0.01-0.252-0.021-0.378-0.031
		c-0.146,0.229-0.293,0.456-0.438,0.685C56.671,4.17,56.942,3.951,57.216,3.734"/>
	<path clip-path="url(#SVGID_2_)" fill="#696158" d="M36.793,2.836c0.443,0.58,0.125,0.02-0.064,0.713
		c0.767-0.059,1.53-0.117,2.293-0.178c-0.312-0.742-0.627-1.484-0.94-2.229C37.501,2.637,37.736,2.038,36.793,2.836"/>
	<path clip-path="url(#SVGID_2_)" fill="#696158" d="M49.769,2.067C50,2.325,50.23,2.583,50.46,2.84
		C49.993,2.122,50.45,2.622,49.769,2.067"/>
	<path clip-path="url(#SVGID_2_)" fill="#696158" d="M4.768,4.944h1.616C6.021,4.41,5.841,3.801,5.657,2.886
		C3.832,3.571,5.643,3.711,4.368,4.578c-0.147,0.229-0.293,0.455-0.44,0.683c0.032-0.355,0.064-0.713,0.095-1.068
		c-0.503-0.04-1.007-0.079-1.51-0.118"/>
	<path clip-path="url(#SVGID_2_)" fill="#696158" d="M32.078,4.617c0.126,0.01,0.252,0.019,0.377,0.03
		c-0.248-1.321,0.089-0.726-0.627-1.486c-0.145,0.227-0.294,0.457-0.44,0.685C31.618,4.103,31.849,4.36,32.078,4.617"/>
	<path clip-path="url(#SVGID_2_)" fill="#696158" d="M30.195,4.469c-0.617-0.774,0.031-0.265-1.069-0.804
		c0.23,0.258,0.461,0.516,0.692,0.774C29.942,4.449,30.069,4.458,30.195,4.469"/>
	<path clip-path="url(#SVGID_2_)" fill="#696158" d="M24.565,4.944h1.243c0.059-0.031,0.117-0.062,0.176-0.092
		c-0.242-0.14-0.482-0.276-0.724-0.416C25,4.535,24.738,4.634,24.476,4.733C24.505,4.803,24.535,4.874,24.565,4.944"/>
	<path clip-path="url(#SVGID_2_)" fill="#696158" d="M49.989,3.881C50,3.76,50.011,3.642,50.02,3.523
		c-0.753-0.061-1.508-0.117-2.262-0.179c0.237,0.759,0.341,0.389-0.416,0.673c0.123-0.42,0.268-0.79,0.448-1.029
		c-1.219-0.561-0.341-0.429-1.917,0.207c0.396-1.728,0.756-2.266,0.228-2.759h-2.975c-0.018,0.009-0.029,0.015-0.048,0.025
		c0.324,0.625,0.649,1.248,0.973,1.872c-1.441,0.625-2.688,0.184-3.08,0.474c-0.271,0.216-0.544,0.435-0.816,0.653
		c1.031-0.05,0.078,0.13,1.162-0.267c-0.214,0.819-0.458,1.352-0.718,1.75h6.523c0.055-0.27,0.116-0.545,0.186-0.804
		c-0.024,0.269-0.048,0.536-0.071,0.804h1.936C49.109,4.688,49.287,4.446,49.989,3.881"/>
	<path clip-path="url(#SVGID_2_)" fill="#696158" d="M38.144,4.737c-0.006,0.069-0.012,0.139-0.018,0.207h0.642
		c0.037-0.043,0.074-0.086,0.129-0.146C38.646,4.776,38.396,4.758,38.144,4.737"/>
	<path clip-path="url(#SVGID_2_)" fill="#696158" d="M35.876,4.944h0.674c-0.464-0.268-0.928-0.534-1.391-0.802
		C35.397,4.409,35.637,4.677,35.876,4.944"/>
	<path clip-path="url(#SVGID_2_)" fill="#696158" d="M0.326,0.932C0.179,1.352,0.096,1.71,0,2.055v1.642
		c2.721-0.39,4.488-1.36,6.505-1.82c0.185,2.085,0.328,1.335,1.256,2.97c-0.015,0.032-0.03,0.064-0.045,0.098h5.736
		c-0.423-0.941-0.588-0.704-2.203-0.898c2.271-1.227,2.325-0.047,2.546-3.028c1.227,1.442,1.17,1.344,3.235,2.051
		c0.219,0.375,0.44,0.751,0.659,1.128c-0.009,0.119-0.019,0.238-0.032,0.356c-1.257-0.098-2.513-0.199-3.768-0.297
		c0.253,0.345,0.471,0.521,0.711,0.688h4.133c-0.455-1.12-1.161-1.525-1.578-3.303c1.089,0.565,2.179,1.13,3.268,1.696
		c0.178-0.587,0.356-1.17,0.534-1.754c0.831,0.629,1.048,1.227,1.729,1.93c0.042-0.474,0.084-0.948,0.126-1.423
		c0.148-0.906,0.02-1.162-0.148-1.654h-1.553c-0.019,0.026-0.039,0.052-0.058,0.077c-0.007-0.029-0.016-0.048-0.022-0.077H3.215
		C3.212,0.472,3.209,0.504,3.206,0.539C1.8,1.628,2.095,1.195,0.798,0.456C0.805,0.449,0.813,0.443,0.82,0.437H0V1.36
		C0.108,1.216,0.206,1.066,0.326,0.932"/>
	<path clip-path="url(#SVGID_2_)" fill="#696158" d="M28.264,0.998c1.199,0.552,0.37,0.433,1.842-0.175
		c0.023-0.002,0.046-0.004,0.069-0.005c-0.611,2.645-1.136,2.476,1.576,3.688c0.584-0.628,0.407-0.559,1.225-0.98
		c-0.324-0.624-0.649-1.248-0.973-1.871c1.441-0.626,2.688-0.184,3.079-0.475c0.272-0.217,0.545-0.435,0.817-0.652
		c-1.031,0.05-0.078-0.13-1.162,0.267c0.033-0.129,0.069-0.242,0.104-0.357h-6.292C28.463,0.657,28.371,0.854,28.264,0.998"/>
	<path clip-path="url(#SVGID_2_)" fill="#696158" d="M34.107,3.615c-0.461,0.98-0.63,0.121-0.095,1.068
		c0.158-0.347,0.315-0.693,0.471-1.04C34.358,3.634,34.233,3.623,34.107,3.615"/>
	<path clip-path="url(#SVGID_2_)" fill="#696158" d="M12.303,1.171c0.377,0.031,0.754,0.061,1.13,0.091
		c-0.132-0.28-0.227-0.55-0.338-0.825h-0.904C12.213,0.658,12.24,0.903,12.303,1.171"/>
	<path clip-path="url(#SVGID_2_)" fill="#696158" d="M28.295,0.642c-0.026-0.083-0.049-0.147-0.071-0.205h-2.189
		c-0.001,0.008-0.002,0.017-0.002,0.026C26.788,0.524,27.542,0.581,28.295,0.642"/>
	<path clip-path="url(#SVGID_2_)" fill="#696158" d="M49.785,2.342c-0.114-0.129-0.23-0.259-0.346-0.387
		c-0.502-0.039-1.004-0.079-1.507-0.118c0.345,0.384,0.69,0.772,1.037,1.159c-0.845,0.717-0.57,0.651-1.981,0.919
		c1.091-0.369-1.68,0.359-2.67,0.148c-0.022,0.658-0.053,0.582,0.056,0.881h3.421C47.9,4.791,48,4.608,48.089,4.362
		c0.542,0.194,1.085,0.388,1.628,0.582h0.977c0.043-0.481,0.085-0.961,0.128-1.442C50.357,2.789,50.519,2.886,49.785,2.342"/>
	<path clip-path="url(#SVGID_2_)" fill="#696158" d="M43.84,0.437c0.071,0.072,0.184,0.176,0.385,0.389
		c0.083-0.129,0.166-0.259,0.25-0.389H43.84z"/>
	<path clip-path="url(#SVGID_2_)" fill="#696158" d="M39.26,1.15c-0.443-0.579-0.124-0.019,0.065-0.713
		c-0.767,0.06-1.53,0.117-2.293,0.178c0.312,0.743,0.627,1.485,0.939,2.229C38.552,1.349,38.317,1.949,39.26,1.15"/>
	<path clip-path="url(#SVGID_2_)" fill="#696158" d="M0.331,3.067C1.035,2.85,1.14,2.709,1.421,2.324
		c-0.07-0.078-0.14-0.157-0.21-0.235C1.394,2.02,1.578,1.952,1.76,1.883c0.093-0.113,0.202-0.24,0.335-0.384
		c0.689,1.659-0.19,0.911,1.629,1.312c0.212-0.494,0.423-0.988,0.633-1.482C4.5,1.384,4.645,1.438,4.788,1.493
		c0.214-0.354,0.456-0.678,0.764-1.056h3.366c0.675,1.148,0.281,0.964,1.504,0.793c-0.401,0.624-0.126,0.335-0.47,0.593
		C9.75,2.726,9.55,3.626,9.349,4.527C8.553,3.89,8.41,3.573,7.999,2.625C8.781,2.411,8.96,2.29,9.221,2.12
		C9.078,2.154,8.935,2.188,8.792,2.222C8.79,2.258,8.786,2.294,8.783,2.33C8.669,2.32,8.558,2.312,8.446,2.303
		c-0.316,0.075-0.634,0.15-0.951,0.224C7.479,2.331,7.462,2.135,7.446,1.938c-0.309,0.07-0.575,0.129-0.809,0.186
		C6.48,3.01,6.325,3.895,6.167,4.779c0.768,0.036,1.2,0.072,1.538,0.164H4.768"/>
	<path clip-path="url(#SVGID_2_)" fill="#696158" d="M1.488,0.437h-0.23C1.255,0.455,1.254,0.467,1.25,0.486
		C1.345,0.462,1.417,0.45,1.488,0.437"/>
	<path clip-path="url(#SVGID_2_)" fill="#696158" d="M10.04,0.994c0.401,0.23,0.801,0.461,1.203,0.691
		c0.162,1.045,0.619,2.15,1.115,3.26h2.418c-0.871-0.996-0.824-1.45-2.634-1.333c-0.003-1.058-0.006-2.116-0.009-3.175H9.564
		c0.02,0.011,0.041,0.022,0.061,0.033C9.57,0.563,9.616,0.688,10.04,0.994"/>
	<path clip-path="url(#SVGID_2_)" fill="#696158" d="M41.239,4.537c-0.167,0.122-0.303,0.26-0.416,0.407h2.102
		c-0.542-0.296-0.841-0.632-1.623-1.12C41.281,4.061,41.261,4.301,41.239,4.537"/>
	<path clip-path="url(#SVGID_2_)" fill="#696158" d="M25.593,1.147c0.467,0.718,0.01,0.218,0.691,0.772
		C26.053,1.661,25.824,1.404,25.593,1.147"/>
	<path clip-path="url(#SVGID_2_)" fill="#696158" d="M13.907,2.043c0.105-0.248,0.211-0.493,0.318-0.742
		c-0.367,0.148-0.734,0.295-1.102,0.442C13.384,1.843,13.645,1.944,13.907,2.043"/>
	<path clip-path="url(#SVGID_2_)" fill="#696158" d="M48.591,1.796l-2.459,0.008C46.557,2.037,47.616,1.984,48.591,1.796"/>
</g>
</svg>
